<svg xmlns="http://www.w3.org/2000/svg" xmlns:xlink="http://www.w3.org/1999/xlink"><defs><symbol fill="none" viewBox="0 0 24 24" id="mt-account"><path d="M12 2C6.48 2 2 6.48 2 12s4.48 10 10 10 10-4.48 10-10S17.52 2 12 2ZM7.07 18.28c.43-.9 3.05-1.78 4.93-1.78s4.51.88 4.93 1.78A7.893 7.893 0 0 1 12 20c-1.86 0-3.57-.64-4.93-1.72Zm11.29-1.45c-1.43-1.74-4.9-2.33-6.36-2.33s-4.93.59-6.36 2.33A7.95 7.95 0 0 1 4 12c0-4.41 3.59-8 8-8s8 3.59 8 8c0 1.82-.62 3.49-1.64 4.83ZM12 6c-1.94 0-3.5 1.56-3.5 3.5S10.06 13 12 13s3.5-1.56 3.5-3.5S13.94 6 12 6Zm0 5c-.83 0-1.5-.67-1.5-1.5S11.17 8 12 8s1.5.67 1.5 1.5S12.83 11 12 11Z" fill="currentColor" /></symbol><symbol fill="none" viewBox="0 0 20 20" id="mt-addPlus"><path d="M15.833 10.833h-5v5H9.166v-5h-5V9.167h5v-5h1.667v5h5v1.666Z" fill="currentColor" /></symbol><symbol viewBox="0 0 29 26" id="mt-alert"><path fill="currentColor" d="M3.11 25.696h22.121c2.262 0 3.672-2.453 2.541-4.406L16.712 2.18c-1.13-1.953-3.951-1.953-5.082 0L.57 21.29c-1.131 1.953.279 4.406 2.54 4.406Zm11.061-10.282a1.473 1.473 0 0 1-1.469-1.468v-2.938c0-.808.661-1.469 1.469-1.469s1.469.661 1.469 1.469v2.938c0 .807-.661 1.468-1.469 1.468Zm1.469 5.876h-2.938v-2.938h2.938v2.938Z" /></symbol><symbol viewBox="0 0 24 24" id="mt-alertFilled"><path d="M0 0h24v24H0z" fill="none" /><path d="M1 21h22L12 2 1 21zm12-3h-2v-2h2v2zm0-4h-2v-4h2v4z" /></symbol><symbol fill="none" viewBox="0 0 24 24" id="mt-batch"><path fill-rule="evenodd" clip-rule="evenodd" d="M4.5 2.5h9v2h-9v9h-2v-9c0-1.1.9-2 2-2Zm3 3h9v2h-9v9h-2v-9c0-1.1.9-2 2-2Zm3 3h9c1.1 0 2 .9 2 2v9c0 1.1-.9 2-2 2h-9c-1.1 0-2-.9-2-2v-9c0-1.1.9-2 2-2Zm0 11h9v-9h-9v9Z" fill="currentColor" /></symbol><symbol viewBox="0 0 24 24" id="mt-calendar"><path d="M9 11H7v2h2v-2Zm4 0h-2v2h2v-2Zm4 0h-2v2h2v-2Zm2-7h-1V2h-2v2H8V2H6v2H5c-1.11 0-1.99.9-1.99 2L3 20a2 2 0 0 0 2 2h14c1.1 0 2-.9 2-2V6c0-1.1-.9-2-2-2Zm0 16H5V9h14v11Z" fill="currentColor" /></symbol><symbol fill="none" viewBox="0 0 20 21" id="mt-campaign"><path d="M6.111 17.787v-4.36H4.167c-.463 0-.857-.158-1.18-.476a1.561 1.561 0 0 1-.487-1.158v-3.27c0-.453.162-.84.486-1.157a1.623 1.623 0 0 1 1.18-.477h5l5.556-3.27v13.078l-5.555-3.27h-1.39v4.36H6.112Zm9.722-3.978V6.508c.5.436.903.967 1.209 1.593a4.63 4.63 0 0 1 .458 2.057 4.63 4.63 0 0 1-.458 2.057 4.986 4.986 0 0 1-1.209 1.594ZM4.167 8.524v3.269H9.61l3.445 2.016V6.508L9.61 8.524H4.167Z" fill="currentColor" /></symbol><symbol viewBox="0 0 24 24" id="mt-cancelFilled"><path d="M12 2C6.47 2 2 6.47 2 12s4.47 10 10 10 10-4.47 10-10S17.53 2 12 2zm5 13.59L15.59 17 12 13.41 8.41 17 7 15.59 10.59 12 7 8.41 8.41 7 12 10.59 15.59 7 17 8.41 13.41 12 17 15.59z" /><path d="M0 0h24v24H0z" fill="none" /></symbol><symbol viewBox="0 0 24 24" id="mt-caretDown"><path fill="currentColor" fill-rule="evenodd" clip-rule="evenodd" d="m7 10 5 5 5-5H7Z" fill-opacity=".6" /></symbol><symbol viewBox="0 0 24 24" id="mt-chevronRight"><path fill="currentColor" fill-rule="evenodd" clip-rule="evenodd" d="M8.6 7.4 10 6l6 6-6 6-1.4-1.4 4.6-4.6-4.6-4.6Z" fill-opacity=".6" /></symbol><symbol viewBox="0 0 16 20" id="mt-click"><path d="m7.917 9.167 5.316 4.475-.733.15-.533.1c-.525.108-.825.691-.592 1.166l.225.484 1.133 2.45-1.183.55-1.133-2.442-.217-.483a.82.82 0 0 0-1.267-.3l-.425.333-.591.475V9.167m-1.25-1.292v9.542c0 .35.283.633.633.633.158 0 .292-.05.4-.133l1.592-1.292 1.383 3.017a.634.634 0 0 0 .575.358c.092 0 .183 0 .275-.067l2.3-1.066c.317-.15.467-.534.3-.842L12.733 15l2.009-.375a.733.733 0 0 0 .358-.217c.225-.266.192-.658-.1-.9L7.717 7.383l-.009.009a.633.633 0 0 0-1.042.483Zm4.166-1.208h3.334a.833.833 0 1 1 0 1.666h-3.334V6.667Zm1.971-4.471a.83.83 0 0 1 0 1.175l-1.77 1.77-1.176-1.174 1.771-1.771a.83.83 0 0 1 1.175 0ZM8.334.833v3.334H6.666V.833a.833.833 0 1 1 1.666 0ZM3.966 9.858l1.175 1.175-1.771 1.771a.83.83 0 1 1-1.175-1.175l1.77-1.77ZM3.37 2.196l1.77 1.77-1.174 1.176-1.77-1.772A.83.83 0 0 1 3.37 2.196ZM0 7.5c0-.46.373-.833.833-.833h3.334v1.666H.833A.833.833 0 0 1 0 7.5Z" /></symbol><symbol fill="none" viewBox="0 0 24 24" id="mt-clickReport"><path fill-rule="evenodd" clip-rule="evenodd" d="m12.346 11.083 6.277 4.923-.866.165-.63.11c-.62.119-.974.76-.698 1.283l.266.532 1.337 2.695-1.396.605-1.338-2.686-.256-.532a.956.956 0 0 0-.66-.508 1.023 1.023 0 0 0-.836.178l-.501.367-.699.523v-7.655Zm-.728-2.117c-.413 0-.748.312-.748.697v10.495c0 .385.335.697.748.697a.794.794 0 0 0 .472-.147l1.88-1.42 1.632 3.318a.756.756 0 0 0 .68.394c.108 0 .216 0 .324-.073l2.715-1.174c.374-.165.551-.586.354-.925L18.032 17.5l2.372-.413a.88.88 0 0 0 .422-.238c.266-.293.227-.724-.118-.99L12.11 9.122l-.01.009a.777.777 0 0 0-.482-.165Zm4.171 1.2V8.334h4.92v1.834h-4.92Zm-1.15-4.803 2.784-2.594 1.387 1.293-2.784 2.594-1.388-1.293ZM10.87 1h1.968v4.583H10.87V1ZM4.9 14.438l2.784-2.594 1.387 1.293-2.784 2.594-1.387-1.293Zm0-10.376 1.387-1.293L9.07 5.363 7.683 6.656 4.899 4.062Zm3.02 6.105H3V8.333h4.919v1.834Z" fill="currentColor" /></symbol><symbol viewBox="0 0 24 24" id="mt-clock"><path d="M11.99 2C6.47 2 2 6.48 2 12s4.47 10 9.99 10C17.52 22 22 17.52 22 12S17.52 2 11.99 2ZM12 20c-4.42 0-8-3.58-8-8s3.58-8 8-8 8 3.58 8 8-3.58 8-8 8Zm.5-13H11v6l5.25 3.15.75-1.23-4.5-2.67V7Z" fill="currentColor" /></symbol><symbol viewBox="0 0 24 24" fill="#777" id="mt-close"><path d="M0 0h24v24H0z" fill="none" /><path d="M19 6.41 17.59 5 12 10.59 6.41 5 5 6.41 10.59 12 5 17.59 6.41 19 12 13.41 17.59 19 19 17.59 13.41 12z" /></symbol><symbol viewBox="0 0 24 24" id="mt-dashboard"><path d="M0 0h24v24H0z" fill="none" /><path fill="currentColor" d="M3 13h8V3H3v10zm0 8h8v-6H3v6zm10 0h8V11h-8v10zm0-18v6h8V3h-8z" /></symbol><symbol fill="none" viewBox="0 0 24 24" id="mt-dashboardCampaigns"><path d="M7.333 21v-5.23H5c-.556 0-1.028-.191-1.417-.573A1.873 1.873 0 0 1 3 13.807V9.886c0-.545.194-1.008.583-1.39A1.948 1.948 0 0 1 5 7.923h6L17.667 4v15.692L11 15.77H9.333V21h-2ZM19 16.227V7.465c.6.523 1.083 1.161 1.45 1.913s.55 1.575.55 2.468c0 .894-.183 1.716-.55 2.468A5.983 5.983 0 0 1 19 16.227ZM5 9.885v3.923h6.533l4.134 2.419V7.465l-4.134 2.42H5Z" fill="currentColor" /></symbol><symbol fill="none" viewBox="0 0 24 24" id="mt-dashboardInvoices"><path d="M8 16h8v2H8v-2Zm0-4h8v2H8v-2Zm6-10H6c-1.1 0-2 .9-2 2v16c0 1.1.89 2 1.99 2H18c1.1 0 2-.9 2-2V8l-6-6Zm4 18H6V4h7v5h5v11Z" fill="currentColor" /></symbol><symbol fill="none" viewBox="0 0 24 24" id="mt-dashboardLastOpened"><path d="M21.99 8c0-.72-.37-1.35-.94-1.7L12 1 2.95 6.3C2.38 6.65 2 7.28 2 8v10c0 1.1.9 2 2 2h16c1.1 0 2-.9 2-2l-.01-10Zm-2 0v.01L12 13 4 8l8-4.68L19.99 8ZM4 18v-7.66l8 5.02 7.99-4.99L20 18H4Z" fill="currentColor" /></symbol><symbol fill="none" viewBox="0 0 24 24" id="mt-dashboardTeam"><path fill-rule="evenodd" clip-rule="evenodd" d="M12 2C6.486 2 2 6.486 2 12s4.486 10 10 10 10-4.486 10-10S17.514 2 12 2Zm3.332 4.624a3.486 3.486 0 1 1-.01 6.97 3.486 3.486 0 0 1 .01-6.97ZM7.875 7.89a2.852 2.852 0 1 1-.008 5.704 2.852 2.852 0 0 1 .008-5.704Zm-3.647 7.452c1.178-.64 2.686-.959 3.647-.959.721 0 1.65.144 2.564.49a6.397 6.397 0 0 0-1.635 1.304c-.634.721-.998 1.583-.998 2.444v.72a8.513 8.513 0 0 1-3.578-3.997v-.002ZM12 20.462a8.42 8.42 0 0 1-2.856-.497v-1.3c0-2.529 4.123-3.803 6.188-3.803 1.105 0 2.806.367 4.144 1.097A8.468 8.468 0 0 1 12 20.462Z" fill="currentColor" /></symbol><mask id="mt-dashboardTeam_a" style="mask-type:alpha" maskUnits="userSpaceOnUse" x="2" y="2" width="20" height="20"><path fill-rule="evenodd" clip-rule="evenodd" d="M12 2C6.486 2 2 6.486 2 12s4.486 10 10 10 10-4.486 10-10S17.514 2 12 2Zm3.332 4.624a3.486 3.486 0 1 1-.01 6.97 3.486 3.486 0 0 1 .01-6.97ZM7.875 7.89a2.852 2.852 0 1 1-.008 5.704 2.852 2.852 0 0 1 .008-5.704Zm-3.647 7.452c1.178-.64 2.686-.959 3.647-.959.721 0 1.65.144 2.564.49a6.397 6.397 0 0 0-1.635 1.304c-.634.721-.998 1.583-.998 2.444v.72a8.513 8.513 0 0 1-3.578-3.997v-.002ZM12 20.462a8.42 8.42 0 0 1-2.856-.497v-1.3c0-2.529 4.123-3.803 6.188-3.803 1.105 0 2.806.367 4.144 1.097A8.468 8.468 0 0 1 12 20.462Z" fill="#fff" /></mask><symbol viewBox="0 0 24 24" id="mt-dashboardUnopened"><g fill="currentColor"><path d="M20 4H4c-1.1 0-1.99.9-1.99 2L2 18c0 1.1.9 2 2 2h16c1.1 0 2-.9 2-2V6c0-1.1-.9-2-2-2zm0 4-8 5-8-5V6l8 5 8-5v2z" /><path d="M0 0h24v24H0z" fill="none" /></g></symbol><symbol fill="none" viewBox="0 0 24 24" id="mt-diamond"><path d="M19 3H5L2 9l10 12L22 9l-3-6ZM9.62 8l1.5-3h1.76l1.5 3H9.62ZM11 10v6.68L5.44 10H11Zm2 0h5.56L13 16.68V10Zm6.26-2h-2.65l-1.5-3h2.65l1.5 3ZM6.24 5h2.65l-1.5 3H4.74l1.5-3Z" fill="currentColor" /></symbol><symbol viewBox="0 0 25 12" id="mt-doubleCheck"><path fill="#66CB87" d="m10.898 8.996 2.122-2.121 1.459 1.414 7.084-6.866a1.5 1.5 0 1 1 2.087 2.154l-8.127 7.878a1.5 1.5 0 0 1-2.088 0l-2.537-2.459zM5.312 8.29l7.084-6.866a1.5 1.5 0 0 1 2.088 2.154l-8.128 7.878a1.5 1.5 0 0 1-2.088 0L.456 7.76a1.5 1.5 0 0 1 2.088-2.154l2.768 2.683z" /></symbol><symbol fill="none" viewBox="0 0 20 20" id="mt-edit"><path d="M2.5 17.5h3.125l9.217-9.217-3.125-3.125L2.5 14.375V17.5Zm1.667-2.434 7.55-7.55.766.767-7.55 7.55h-.766v-.767ZM15.308 2.742a.83.83 0 0 0-1.175 0l-1.525 1.525 3.125 3.125 1.525-1.525a.83.83 0 0 0 0-1.175l-1.95-1.95Z" fill="#333" /></symbol><symbol fill="none" viewBox="0 0 24 24" id="mt-emailProductivity"><path fill-rule="evenodd" clip-rule="evenodd" d="M19 3H5c-1.1 0-2 .9-2 2v14c0 1.1.9 2 2 2h14c1.1 0 2-.9 2-2V5c0-1.1-.9-2-2-2Zm0 16H5V5h14v14ZM7 10h2v7H7v-7Zm4-3h2v10h-2V7Zm4 6h2v4h-2v-4Z" fill="currentColor" /></symbol><symbol fill="none" viewBox="0 0 18 18" id="mt-file"><path d="M3 2.5h1v14a1 1 0 0 1-1-1v-13ZM14 5.547h1v4.579l-1-.375V5.547Z" fill="currentColor" /><path d="M5.625 15.5H3a1 1 0 0 0 1 1h2.375l-.75-1ZM3 2.5a1 1 0 0 1 1-1h7v1H3Z" fill="currentColor" /><path d="M11 6h-.5V1.5h.5V6Z" fill="currentColor" /><path d="M15 5.5V6h-4.5v-.5H15Z" fill="currentColor" /><path d="m15 5.5-4-4-.238 4.047 2.74.45L15 5.5Z" fill="currentColor" /><path fill-rule="evenodd" clip-rule="evenodd" d="M11.25 9.75c-2.727 0-5.056 1.556-6 3.75.944 2.196 3.273 3.75 6 3.75s5.056-1.554 6-3.75c-.944-2.194-3.273-3.75-6-3.75Zm0 6.25c-1.505 0-2.727-1.12-2.727-2.5S9.745 11 11.25 11s2.727 1.12 2.727 2.5S12.755 16 11.25 16Zm0-4c-.905 0-1.636.67-1.636 1.5s.73 1.5 1.636 1.5c.905 0 1.636-.67 1.636-1.5s-.73-1.5-1.636-1.5Z" fill="currentColor" /></symbol><symbol fill="none" viewBox="0 0 14 14" id="mt-fileDownloadable"><path d="M12 9.5V12H2V9.5H.333V12c0 .917.75 1.667 1.667 1.667h10c.917 0 1.667-.75 1.667-1.667V9.5H12Zm-.833-3.333L9.992 4.992l-2.159 2.15V.333H6.167v6.809l-2.159-2.15-1.175 1.175L7 10.333l4.167-4.166Z" fill="#9B9B9B" /></symbol><symbol fill="none" viewBox="0 0 18 18" id="mt-fileNotDownloadable"><path d="M9 .667A8.326 8.326 0 0 0 .667 9 8.326 8.326 0 0 0 9 17.333 8.326 8.326 0 0 0 17.333 9 8.326 8.326 0 0 0 9 .667Zm0 15A6.676 6.676 0 0 1 2.333 9 6.676 6.676 0 0 1 9 2.333 6.675 6.675 0 0 1 15.667 9 6.675 6.675 0 0 1 9 15.667Zm2.992-10.834L9 7.825 6.008 4.833 4.833 6.008 7.825 9l-2.992 2.992 1.175 1.175L9 10.175l2.992 2.992 1.175-1.175L10.175 9l2.992-2.992-1.175-1.175Z" fill="#9B9B9B" /></symbol><symbol fill="none" viewBox="0 0 28 28" id="mt-fileTracking"><path d="M7.26 10.792H5.126V9.345h2.132c.33 0 .598-.057.805-.173.207-.12.359-.284.454-.494.096-.21.144-.447.144-.711 0-.268-.048-.517-.144-.748a1.226 1.226 0 0 0-.454-.556c-.207-.14-.475-.21-.805-.21H5.725V14H4V5h3.26c.655 0 1.216.128 1.684.383.471.252.831.6 1.08 1.045.25.445.374.954.374 1.527 0 .58-.124 1.083-.373 1.508-.25.424-.61.752-1.081.983-.468.23-1.03.346-1.685.346ZM13.805 14h-1.823l.012-1.446h1.81c.453 0 .834-.11 1.144-.328.31-.223.545-.546.702-.97.16-.425.241-.938.241-1.54v-.439c0-.461-.046-.867-.138-1.217a2.5 2.5 0 0 0-.396-.884 1.68 1.68 0 0 0-.65-.538 2.017 2.017 0 0 0-.885-.185h-1.874V5h1.874c.56 0 1.07.103 1.535.31a3.46 3.46 0 0 1 1.213.87c.34.38.603.833.787 1.36a5.15 5.15 0 0 1 .282 1.75v.426a5.18 5.18 0 0 1-.282 1.75c-.184.527-.446.98-.787 1.36a3.491 3.491 0 0 1-1.213.871 3.875 3.875 0 0 1-1.552.303Zm-.845-9v9h-1.725V5h1.725Zm7.303 0v9H18.54V5h1.724Zm3.335 3.845v1.446h-3.806V8.845h3.806ZM24 5v1.453h-4.208V5H24Z" fill="#4A4A4A" /><path fill-rule="evenodd" clip-rule="evenodd" d="M8.375 19.758c-.486-.54-.5-1.078-.04-1.615.46-.537.99-.537 1.587 0L12 20.265l4.572-4.687c.607-.684 1.184-.76 1.732-.23s.52 1.126-.082 1.788l-5.335 5.508c-.214.244-.51.366-.887.366-.378 0-.713-.191-1.004-.573l-2.62-2.679Z" fill="#00B878" /><path fill-rule="evenodd" clip-rule="evenodd" d="M8.375 19.758c-.486-.54-.5-1.078-.04-1.615.46-.537.99-.537 1.587 0L12 20.265l4.572-4.687c.607-.684 1.184-.76 1.732-.23s.52 1.126-.082 1.788l-5.335 5.508c-.214.244-.51.366-.887.366-.378 0-.713-.191-1.004-.573l-2.62-2.679Z" fill="#00B878" /><path fill-rule="evenodd" clip-rule="evenodd" d="M8.375 19.758c-.486-.54-.5-1.078-.04-1.615.46-.537.99-.537 1.587 0L12 20.265l4.572-4.687c.607-.684 1.184-.76 1.732-.23s.52 1.126-.082 1.788l-5.335 5.508c-.214.244-.51.366-.887.366-.378 0-.713-.191-1.004-.573l-2.62-2.679Z" fill="#00B878" /><path fill-rule="evenodd" clip-rule="evenodd" d="M8.375 19.758c-.486-.54-.5-1.078-.04-1.615.46-.537.99-.537 1.587 0L12 20.265l4.572-4.687c.607-.684 1.184-.76 1.732-.23s.52 1.126-.082 1.788l-5.335 5.508c-.214.244-.51.366-.887.366-.378 0-.713-.191-1.004-.573l-2.62-2.679Zm8.582.097L15.39 21.45l.965.986c.291.382.626.573 1.004.573.377 0 .673-.122.887-.366l5.335-5.508c.602-.662.63-1.258.082-1.789-.548-.53-1.125-.453-1.732.231l-4.572 4.687-.402-.41Z" fill="#00B878" /></symbol><symbol fill="none" viewBox="0 0 21 21" id="mt-fileUpload"><path d="M12.167 2.167H5.5c-.917 0-1.658.75-1.658 1.666l-.009 13.334c0 .916.742 1.666 1.659 1.666H15.5c.917 0 1.667-.75 1.667-1.666v-10l-5-5Zm3.333 15h-10V3.833h5.833V8H15.5v9.167Zm-8.333-4.159 1.175 1.175 1.325-1.316v3.466h1.666v-3.466l1.325 1.325 1.175-1.184-3.325-3.341-3.341 3.341Z" fill="currentColor" /></symbol><symbol viewBox="0 0 18 18" id="mt-google"><g fill="none" fill-rule="evenodd"><path fill="#EA4335" d="M9 3.48c1.69 0 2.83.73 3.48 1.34l2.54-2.48C13.46.89 11.43 0 9 0 5.48 0 2.44 2.02.96 4.96l2.91 2.26C4.6 5.05 6.62 3.48 9 3.48Z" /><path fill="#4285F4" d="M17.64 9.2c0-.74-.06-1.28-.19-1.84H9v3.34h4.96c-.1.83-.64 2.08-1.84 2.92l2.84 2.2c1.7-1.57 2.68-3.88 2.68-6.62Z" /><path fill="#FBBC05" d="M3.88 10.78A5.54 5.54 0 0 1 3.58 9c0-.62.11-1.22.29-1.78L.96 4.96A9.008 9.008 0 0 0 0 9c0 1.45.35 2.82.96 4.04l2.92-2.26Z" /><path fill="#34A853" d="M9 18c2.43 0 4.47-.8 5.96-2.18l-2.84-2.2c-.76.53-1.78.9-3.12.9-2.38 0-4.4-1.57-5.12-3.74L.97 13.04C2.45 15.98 5.48 18 9 18Z" /><path d="M0 0h18v18H0z" /></g></symbol><symbol viewBox="0 0 25 12" id="mt-greyCheck"><path fill="#C5C5C5" d="m10.898 8.996 2.122-2.121 1.459 1.414 7.084-6.866a1.5 1.5 0 1 1 2.087 2.154l-8.127 7.878a1.5 1.5 0 0 1-2.088 0l-2.537-2.459zM5.312 8.29l7.084-6.866a1.5 1.5 0 0 1 2.088 2.154l-8.128 7.878a1.5 1.5 0 0 1-2.088 0L.456 7.76a1.5 1.5 0 0 1 2.088-2.154l2.768 2.683z" /></symbol><symbol viewBox="0 0 24 24" id="mt-help"><path fill="currentColor" d="M12 2C6.48 2 2 6.48 2 12s4.48 10 10 10 10-4.48 10-10S17.52 2 12 2Zm1 17h-2v-2h2v2Zm2.07-7.75-.9.92c-.5.51-.86.97-1.04 1.69-.08.32-.13.68-.13 1.14h-2v-.5a3.997 3.997 0 0 1 1.17-2.83l1.24-1.26c.46-.44.68-1.1.55-1.8a1.99 1.99 0 0 0-1.39-1.53c-1.11-.31-2.14.32-2.47 1.27-.12.37-.43.65-.82.65h-.3C8.4 9 8 8.44 8.16 7.88a4.008 4.008 0 0 1 3.23-2.83c1.52-.24 2.97.55 3.87 1.8 1.18 1.63.83 3.38-.19 4.4Z" /></symbol><symbol fill="none" viewBox="0 0 24 24" id="mt-helpOutline"><path d="M11 18h2v-2h-2v2Zm1-16C6.48 2 2 6.48 2 12s4.48 10 10 10 10-4.48 10-10S17.52 2 12 2Zm0 18c-4.41 0-8-3.59-8-8s3.59-8 8-8 8 3.59 8 8-3.59 8-8 8Zm0-14c-2.21 0-4 1.79-4 4h2c0-1.1.9-2 2-2s2 .9 2 2c0 2-3 1.75-3 5h2c0-2.25 3-2.5 3-5 0-2.21-1.79-4-4-4Z" fill="currentColor" /></symbol><symbol fill="none" viewBox="0 0 24 24" id="mt-info"><g clip-path="url(#mt-info_a)"><path d="M11 7h2v2h-2V7Zm0 4h2v6h-2v-6Zm1-9C6.48 2 2 6.48 2 12s4.48 10 10 10 10-4.48 10-10S17.52 2 12 2Zm0 18c-4.41 0-8-3.59-8-8s3.59-8 8-8 8 3.59 8 8-3.59 8-8 8Z" fill="currentColor" /></g><defs></defs></symbol><clipPath id="mt-info_a"><path fill="#fff" d="M0 0h24v24H0z" /></clipPath><symbol viewBox="0 0 24 24" id="mt-infoFilled"><path d="M0 0h24v24H0z" fill="none" /><path d="M12 2C6.48 2 2 6.48 2 12s4.48 10 10 10 10-4.48 10-10S17.52 2 12 2zm1 15h-2v-6h2v6zm0-8h-2V7h2v2z" /></symbol><symbol fill="none" viewBox="0 0 16 16" id="mt-launch"><path d="M12.667 12.667H3.333V3.333H8V2H3.333C2.593 2 2 2.6 2 3.333v9.334C2 13.4 2.593 14 3.333 14h9.334C13.4 14 14 13.4 14 12.667V8h-1.333v4.667ZM9.333 2v1.333h2.394L5.173 9.887l.94.94 6.554-6.554v2.394H14V2H9.333Z" fill="currentColor" /></symbol><symbol fill="none" viewBox="0 0 20 20" id="mt-letterEnvelope"><path d="M18.333 5c0-.916-.75-1.666-1.666-1.666H3.332c-.917 0-1.667.75-1.667 1.666v10c0 .917.75 1.667 1.667 1.667h13.334c.916 0 1.666-.75 1.666-1.667V5Zm-1.666 0L10 9.16 3.333 5h13.334Zm0 10H3.332V6.667L10 10.834l6.666-4.167V15Z" fill="currentColor" /></symbol><symbol viewBox="0 0 200 200" id="mt-linkTracking"><path fill-rule="evenodd" clip-rule="evenodd" d="M33.058 27.193c38.38-37.905 102.5-35.943 143.299 4.385 40.798 40.327 21.189 91.213-17.135 129.098-38.323 37.886-89.82 57.271-130.62 16.943-40.798-40.328-33.887-112.54 4.456-150.426Z" fill="#F4F2FC" /><g mask="url(#mt-linkTracking_a)" fill-rule="evenodd" clip-rule="evenodd" fill="#CCE7E3"><path d="M63.218 59.417 38.875 27.13s-11.59-10.101-20.154.937c-8.563 11.038 4.43 19.33 4.43 19.33l40.067 12.02ZM56.63 73.034l-40.61-6.78S.453 66.816 2.18 80.53C3.91 94.243 19.192 91.434 19.192 91.434l37.438-18.4ZM74.31 54.168 61.066 16.266S59.2 1.243 73.415.756C87.627.268 87.162 15.37 87.162 15.37L74.311 54.168Z" /></g><path fill-rule="evenodd" clip-rule="evenodd" d="m59.595 100.16 55.174-56.068 26.564-.462 19.333 8.66-.228 20.833-9.901 20.787-46.445 47.627-27.61 17.771-21.097-5.666L43.211 138.2l8.46-20.43 7.924-17.61Z" fill="#fff" /><path fill-rule="evenodd" clip-rule="evenodd" d="M128.478 110.711c1.382-.024 2.585-.505 3.608-1.444l25.006-25.169c5.496-5.623 8.287-12.304 8.371-20.043.085-7.74-2.584-14.302-8.005-19.689-5.422-5.386-12.002-8.012-19.74-7.878-7.739.135-14.402 3.014-19.99 8.639L92.721 70.295c-.931.938-1.404 2.097-1.42 3.48-.014 1.381.456 2.548 1.413 3.498.957.95 2.126 1.414 3.508 1.39 1.382-.024 2.538-.505 3.47-1.442l25.006-25.169c3.633-3.655 7.936-5.527 12.911-5.613 4.975-.087 9.216 1.613 12.724 5.098 3.508 3.486 5.235 7.739 5.18 12.76-.055 5.022-1.898 9.314-5.529 12.878l-24.869 25.166c-1.023.939-1.542 2.099-1.557 3.481-.016 1.382.455 2.549 1.412 3.499.957.951 2.126 1.414 3.508 1.39Zm-61.016 51.98c7.738-.135 14.401-2.968 19.988-8.5l25.007-25.169c.932-1.029 1.406-2.235 1.421-3.617.015-1.382-.456-2.548-1.413-3.499-.956-.95-2.126-1.414-3.508-1.39-1.382.024-2.539.551-3.471 1.581l-25.007 25.168c-3.63 3.564-7.934 5.389-12.909 5.476-4.974.086-9.193-1.591-12.655-5.031-3.554-3.531-5.304-7.784-5.25-12.759.055-4.975 1.898-9.291 5.53-12.946l24.869-25.167c1.023-.939 1.543-2.1 1.558-3.481.015-1.382-.456-2.548-1.413-3.499-.956-.95-2.126-1.414-3.508-1.39-1.381.024-2.539.551-3.471 1.58L48.225 115.08c-5.588 5.624-8.424 12.306-8.509 20.045-.085 7.74 2.584 14.303 8.005 19.689 5.422 5.387 12.002 8.013 19.74 7.878Zm32.346-50.776c-.987 1.09-2.212 1.648-3.676 1.673-1.463.026-2.7-.465-3.714-1.471-1.013-1.007-1.512-2.242-1.496-3.705.016-1.464.566-2.693 1.65-3.687l15.089-15.186c.987-1.09 2.212-1.648 3.675-1.674 1.464-.025 2.702.466 3.715 1.472 1.013 1.007 1.511 2.242 1.495 3.705-.016 1.463-.565 2.692-1.649 3.686l-15.089 15.187Z" fill="#D8D8D8" /><path d="m132.086 109.267.997 1.092.026-.025.026-.025-1.049-1.042Zm25.006-25.169 1.049 1.042.009-.009-1.058-1.033Zm.366-39.732 1.072-1.079-1.072 1.08Zm-39.73.76-1.049-1.041 1.049 1.042Zm-25.007 25.17-1.049-1.043 1.05 1.042Zm6.97 6.925-1.048-1.042 1.049 1.042Zm25.007-25.169 1.049 1.042-1.049-1.042Zm25.635-.515-1.072 1.08 1.072-1.08Zm-.349 25.638-1.035-1.056-.009.008-.008.009 1.052 1.039Zm-24.869 25.166.997 1.092.028-.026.027-.027-1.052-1.039Zm-37.665 51.85 1.04 1.051.009-.009-1.049-1.042Zm25.007-25.169 1.048 1.043.026-.026.024-.027-1.098-.99Zm-6.971-6.925 1.049 1.042.025-.026.025-.027-1.099-.989Zm-25.007 25.168 1.035 1.056.008-.007.006-.007-1.049-1.042Zm-25.283-25.26 1.049 1.042.003-.003-1.052-1.039Zm24.868-25.167-.997-1.092-.028.026-.027.027 1.052 1.04Zm-6.834-6.79 1.046 1.046.027-.027.026-.029-1.099-.99ZM48.225 115.08l-1.046-1.045-.003.003 1.05 1.042Zm-.504 39.734 1.073-1.079-1.073 1.079Zm52.087-42.898-1.049-1.042-.025.025-.024.027 1.098.99Zm-7.39.202-1.072 1.079 1.072-1.079Zm.154-7.392.997 1.092.026-.024.026-.026-1.049-1.042Zm15.089-15.186 1.048 1.042.026-.026.024-.027-1.098-.99Zm7.39-.202 1.072-1.079-1.072 1.079Zm-.154 7.391-.997-1.092-.027.025-.025.025 1.049 1.042Zm16.192 11.446c-.742.681-1.582 1.02-2.595 1.037l-.032 3c1.751-.03 3.316-.655 4.621-1.852l-1.994-2.185Zm24.955-25.118-25.007 25.168 2.098 2.085 25.006-25.169-2.097-2.084Zm7.92-18.975c-.081 7.345-2.712 13.646-7.929 18.984l2.115 2.066c5.775-5.907 8.724-12.969 8.813-21.102l-2.999.052Zm-7.578-18.636c5.144 5.111 7.658 11.295 7.578 18.636l2.999-.052c.089-8.138-2.734-15.08-8.433-20.742l-2.144 2.158Zm-18.685-7.457c7.34-.128 13.541 2.346 18.685 7.457l2.144-2.158c-5.699-5.662-12.659-8.44-20.796-8.299l-.033 3Zm-18.924 8.18c5.307-5.34 11.588-8.052 18.924-8.18l.033-3c-8.141.142-15.186 3.19-21.055 9.096l2.098 2.085ZM93.77 71.339l25.007-25.17-2.098-2.084-25.007 25.169 2.098 2.084Zm-.969 2.41c.011-1.01.34-1.778.97-2.41l-2.099-2.085c-1.234 1.242-1.851 2.794-1.87 4.547l3-.052Zm.985 2.446c-.675-.67-.996-1.457-.985-2.446l-3 .052c-.019 1.776.603 3.322 1.84 4.552l2.145-2.158Zm2.452.97c-.988.016-1.776-.299-2.452-.97l-2.144 2.158c1.238 1.23 2.788 1.842 4.564 1.81l.032-2.999Zm2.405-.985c-.629.632-1.394.966-2.405.984l-.032 3c1.752-.03 3.3-.658 4.535-1.9l-2.098-2.084Zm25.006-25.169L98.643 76.18l2.098 2.084 25.006-25.169-2.098-2.084Zm13.976-6.071c-5.382.093-10.066 2.136-13.976 6.071l2.098 2.084c3.355-3.376 7.278-5.076 11.845-5.155l.033-3Zm13.78 5.52c-3.783-3.76-8.403-5.614-13.78-5.52l-.033 3c4.574-.08 8.437 1.465 11.669 4.677l2.144-2.158Zm5.608 13.812c.059-5.419-1.821-10.05-5.608-13.813l-2.144 2.158c3.23 3.209 4.803 7.084 4.752 11.707l3-.052Zm-5.994 13.96c3.924-3.851 5.934-8.534 5.994-13.96l-3 .052c-.05 4.618-1.726 8.52-5.064 11.796l2.07 2.112Zm-24.852 25.149 24.869-25.166-2.104-2.078-24.868 25.166 2.103 2.078Zm-1.11 2.416c.011-.963.351-1.716 1.055-2.363l-1.993-2.184c-1.343 1.231-2.042 2.799-2.061 4.6l2.999-.053Zm.985 2.446c-.675-.671-.995-1.457-.985-2.446l-2.999.053c-.02 1.775.602 3.321 1.84 4.551l2.144-2.158Zm2.452.969c-.988.017-1.776-.298-2.452-.969l-2.144 2.158c1.238 1.231 2.788 1.842 4.564 1.811l.032-3ZM86.41 153.14c-5.304 5.252-11.587 7.923-18.932 8.051l-.033 3c8.133-.141 15.175-3.137 21.045-8.949l-2.08-2.102Zm24.998-25.16-25.007 25.169 2.098 2.084 25.006-25.168-2.097-2.085Zm.97-2.549c-.011 1.013-.344 1.855-1.02 2.602l2.197 1.979c1.189-1.313 1.803-2.882 1.823-4.633l-3 .052Zm-.985-2.446c.676.671.996 1.457.985 2.446l3-.052c.019-1.775-.602-3.322-1.841-4.552l-2.144 2.158Zm-2.452-.969c.989-.017 1.777.298 2.452.969l2.144-2.158c-1.238-1.23-2.788-1.841-4.563-1.811l-.033 3Zm-2.356 1.07c.641-.708 1.392-1.053 2.356-1.07l.033-3c-1.8.032-3.364.741-4.587 2.091l2.198 1.979Zm-25.057 25.221 25.007-25.168-2.098-2.084-25.006 25.168 2.097 2.084Zm-13.974 5.934c5.37-.094 10.049-2.081 13.96-5.92l-2.07-2.112c-3.35 3.289-7.277 4.952-11.857 5.032l-.033 3Zm-13.712-5.452c3.743 3.718 8.342 5.545 13.712 5.452l.033-3c-4.58.079-8.418-1.448-11.6-4.61l-2.145 2.158Zm-5.676-13.812c-.059 5.383 1.851 10.012 5.676 13.812l2.145-2.158c-3.282-3.261-4.872-7.138-4.822-11.706l-3 .052Zm5.98-14.015c-3.909 3.936-5.921 8.633-5.98 14.015l3-.052c.05-4.568 1.724-8.502 5.079-11.878l-2.098-2.085Zm24.866-25.163-24.868 25.166 2.104 2.079 24.868-25.166-2.104-2.079Zm1.11-2.416c-.01.964-.35 1.717-1.055 2.363l1.994 2.185c1.342-1.232 2.04-2.8 2.06-4.6l-2.999.052Zm-.985-2.446c.676.671.996 1.457.985 2.446l3-.052c.019-1.776-.603-3.322-1.84-4.552l-2.145 2.158Zm-2.452-.969c.989-.017 1.777.298 2.452.969l2.144-2.158c-1.238-1.23-2.788-1.842-4.563-1.81l-.033 3Zm-2.356 1.07c.642-.709 1.392-1.053 2.356-1.07l.033-3c-1.8.032-3.364.74-4.587 2.09l2.198 1.98ZM49.27 116.124l25.005-25.03-2.092-2.09-25.005 25.03 2.092 2.09Zm-8.055 18.974c.08-7.337 2.751-13.636 8.058-18.977l-2.098-2.084c-5.869 5.907-8.87 12.972-8.96 21.113l3-.052Zm7.578 18.636c-5.144-5.111-7.658-11.295-7.578-18.636l-3 .052c-.089 8.138 2.734 15.08 8.433 20.742l2.145-2.158Zm18.684 7.457c-7.34.128-13.54-2.346-18.684-7.457l-2.145 2.158c5.7 5.663 12.66 8.441 20.796 8.299l.033-3Zm28.638-46.103c1.882-.033 3.513-.773 4.791-2.184l-2.197-1.979c-.697.769-1.516 1.145-2.561 1.163l-.033 3Zm-4.77-1.892c1.294 1.286 2.914 1.924 4.77 1.892l.033-3c-1.07.019-1.927-.324-2.659-1.051l-2.144 2.159Zm-1.923-4.758c-.02 1.856.629 3.471 1.923 4.758l2.144-2.159c-.732-.727-1.08-1.581-1.068-2.651l-3 .052Zm2.152-4.805c-1.403 1.287-2.132 2.923-2.152 4.805l3-.052c.01-1.046.381-1.867 1.146-2.569l-1.994-2.184Zm15.037-15.136-15.089 15.186 2.098 2.084 15.088-15.186-2.097-2.084Zm4.741-2.132c-1.882.033-3.513.773-4.791 2.184l2.197 1.98c.697-.77 1.516-1.145 2.561-1.164l.033-3Zm4.77 1.893c-1.295-1.286-2.914-1.925-4.77-1.892l-.033 3c1.07-.02 1.927.323 2.659 1.05l2.144-2.158Zm1.923 4.758c.02-1.857-.629-3.472-1.923-4.758l-2.144 2.158c.731.727 1.079 1.582 1.068 2.652l2.999-.052Zm-2.152 4.805c1.402-1.287 2.132-2.924 2.152-4.805l-2.999.052c-.012 1.045-.382 1.867-1.147 2.568l1.994 2.185Zm-15.037 15.136 15.089-15.186-2.098-2.085-15.089 15.187 2.098 2.084Z" fill="#D8D8D8" /></symbol><mask id="mt-linkTracking_a" mask-type="alpha" maskUnits="userSpaceOnUse" x="0" y="0" width="200" height="200"><path fill="#C4C4C4" d="M0 0h200v200H0z" /></mask><symbol viewBox="0 0 24 24" id="mt-lists"><path fill="currentColor" fill-rule="evenodd" d="M5 7h14v4H5V7zm0 6h14v2H5v-2zm14 4H5v1h14v-1z" clip-rule="evenodd" /></symbol><symbol viewBox="0 0 24 24" id="mt-loading"><path fill-rule="evenodd" clip-rule="evenodd" d="M12 3.875A8.125 8.125 0 0 0 3.875 12 .937.937 0 1 1 2 12C2 6.477 6.477 2 12 2s10 4.477 10 10-4.477 10-10 10a.937.937 0 1 1 0-1.875 8.125 8.125 0 0 0 0-16.25Z" fill="currentColor" fill-opacity=".6" /></symbol><symbol fill="none" viewBox="0 0 30 24" id="mt-logo"><path fill-rule="evenodd" clip-rule="evenodd" d="m4.338 9.777 9.706-6.075a1.808 1.808 0 0 1 1.912 0l9.706 6.075c.504.316.809.859.809 1.442v8.495a.87.87 0 0 1-.883.857H4.412a.87.87 0 0 1-.883-.857V11.22c0-.583.305-1.126.81-1.442Z" fill="#00B878" /><path fill-rule="evenodd" clip-rule="evenodd" d="M6.618 5.571h16.764a.87.87 0 0 1 .883.858v5.862c0 .615-.34 1.183-.89 1.488l-7.5 4.163a1.81 1.81 0 0 1-1.75 0l-7.5-4.163a1.706 1.706 0 0 1-.89-1.488V6.429a.87.87 0 0 1 .883-.858Z" fill="#fff" /><path fill-rule="evenodd" clip-rule="evenodd" d="M23.382 5.571a.87.87 0 0 1 .883.858v5.862c0 .615-.34 1.183-.89 1.488l-7.5 4.163a1.81 1.81 0 0 1-1.75 0l-7.5-4.163a1.706 1.706 0 0 1-.89-1.488V6.429a.87.87 0 0 1 .883-.858h16.764Zm0 .429H6.618a.437.437 0 0 0-.439.379l-.003.05v5.862c0 .432.224.834.592 1.071l.075.045 7.5 4.163c.38.211.84.225 1.231.043l.083-.043 7.5-4.163c.386-.214.634-.602.664-1.03l.002-.086V6.429c0-.22-.17-.401-.39-.426L23.384 6Z" fill="#F4F4F4" /><path fill-rule="evenodd" clip-rule="evenodd" d="M23.824 12v1.425c-.127.14-.277.26-.448.354l-7.5 4.164a1.81 1.81 0 0 1-1.752 0l-7.5-4.164a1.754 1.754 0 0 1-.448-.355V12h17.648Z" fill="#fff" /><path fill-rule="evenodd" clip-rule="evenodd" d="m14.507 12.28 1.019-1.013.62.614 3.013-2.94c.4-.428.78-.477 1.141-.144.361.332.343.706-.054 1.122l-3.515 3.455c-.142.153-.337.23-.585.23-.25 0-.47-.12-.662-.36l-.977-.964Zm-4.801-.602c-.32-.338-.33-.676-.026-1.013.303-.337.651-.337 1.045 0l1.37 1.331 3.013-2.94c.4-.428.78-.477 1.141-.144.36.332.343.706-.054 1.122l-3.516 3.455c-.14.153-.336.23-.585.23-.248 0-.469-.12-.66-.36l-1.728-1.68Z" fill="#6964CE" /></symbol><symbol viewBox="0 0 32 36" id="mt-logoAdvanced"><g fill="none"><path fill="#00B878" d="M1.128 9.116 14.667.392a2.461 2.461 0 0 1 2.666 0l13.539 8.724A2.462 2.462 0 0 1 32 11.186v12.198a1.23 1.23 0 0 1-1.23 1.231H1.23A1.23 1.23 0 0 1 0 23.385v-12.2c0-.836.425-1.616 1.128-2.069Z" /><path fill="#FFF" d="M4.308 3.077h23.384c.68 0 1.231.551 1.231 1.23v8.418c0 .884-.473 1.7-1.24 2.138L17.22 20.84a2.462 2.462 0 0 1-2.442 0L4.317 14.863a2.462 2.462 0 0 1-1.24-2.138V4.308c0-.68.551-1.231 1.23-1.231Z" /><path fill="#F4F4F4" d="M27.692 3.077c.68 0 1.231.551 1.231 1.23v8.418c0 .884-.473 1.7-1.24 2.138L17.22 20.84a2.462 2.462 0 0 1-2.442 0L4.317 14.863a2.462 2.462 0 0 1-1.24-2.138V4.308c0-.68.551-1.231 1.23-1.231h23.385Zm0 .615H4.308a.615.615 0 0 0-.612.544l-.004.072v8.417c0 .621.312 1.198.825 1.538l.106.065 10.461 5.978c.53.303 1.172.323 1.717.06l.115-.06 10.461-5.978c.54-.308.885-.865.927-1.48l.004-.123V4.308a.615.615 0 0 0-.544-.612l-.072-.004Z" /><path fill="#FFF" d="M28.308 12.308v2.046a2.46 2.46 0 0 1-.625.509L17.22 20.84a2.462 2.462 0 0 1-2.442 0L4.317 14.863a2.46 2.46 0 0 1-.626-.51l.001-2.045h24.616Z" /><path fill="#6964CE" d="m15.312 12.71 1.422-1.455.864.882 4.203-4.22c.558-.617 1.089-.686 1.592-.209.503.478.478 1.015-.075 1.611l-4.904 4.962c-.197.22-.469.329-.816.329s-.655-.172-.923-.516l-1.363-1.384Zm-6.697-.864c-.447-.486-.46-.971-.036-1.455.423-.483.909-.483 1.458 0l1.91 1.911 4.203-4.22c.558-.617 1.089-.686 1.592-.209.504.478.478 1.015-.075 1.611l-4.904 4.962c-.197.22-.469.329-.816.329s-.655-.172-.922-.516l-2.41-2.413Z" /><rect width="29.277" height="13.617" x="1.362" y="21.787" fill="#DEDEDE" rx="2.723" /><rect width="27.915" height="12.255" x="2.043" y="22.468" fill="#FFF" rx="2.723" /><path fill="#5396E5" d="m9.999 31 .368-1.079h1.925l.36 1.079h.999l-1.702-5h-1.183L9 31h.999Zm2.062-1.764h-1.455l.736-2.15.719 2.15ZM16.248 31c.789 0 1.425-.226 1.91-.678.49-.452.735-1.058.735-1.818 0-.765-.245-1.374-.735-1.826-.485-.452-1.121-.678-1.91-.678h-1.686v5h1.686Zm0-.824h-.735v-3.352h.735c.496 0 .893.157 1.191.47.288.308.432.712.432 1.21 0 .488-.144.886-.432 1.194-.304.318-.7.478-1.19.478Zm5.97.824L24 26h-.99l-1.28 3.86L20.468 26h-1l1.759 5h.99Z" /></g></symbol><symbol fill="none" viewBox="0 0 32 35" id="mt-logoError"><path d="m1.128 13.116 13.539-8.724a2.461 2.461 0 0 1 2.666 0l13.539 8.724A2.462 2.462 0 0 1 32 15.186v12.198a1.23 1.23 0 0 1-1.23 1.231H1.23A1.23 1.23 0 0 1 0 27.385v-12.2c0-.836.425-1.616 1.128-2.069Z" fill="#DDD" /><path d="M4.308 7.077h23.384c.68 0 1.231.55 1.231 1.23v8.418c0 .884-.473 1.7-1.24 2.137L17.22 24.841a2.461 2.461 0 0 1-2.442 0l-10.461-5.98a2.461 2.461 0 0 1-1.24-2.137V8.308c0-.68.55-1.231 1.23-1.231Z" fill="#fff" /><path d="M27.692 7.077c.68 0 1.231.55 1.231 1.23v8.418c0 .884-.473 1.7-1.24 2.137L17.22 24.841a2.461 2.461 0 0 1-2.442 0l-10.461-5.98a2.461 2.461 0 0 1-1.24-2.137V8.308c0-.68.55-1.231 1.23-1.231h23.385Zm0 .615H4.308a.615.615 0 0 0-.612.544l-.004.072v8.417c0 .621.312 1.198.825 1.538l.105.065 10.462 5.978c.53.303 1.172.323 1.717.06l.115-.06 10.462-5.978c.539-.308.884-.865.925-1.48l.005-.123V8.308a.616.616 0 0 0-.544-.612l-.072-.004Z" fill="#F1F3F4" /><path fill-rule="evenodd" clip-rule="evenodd" d="M12.258 17.494a.882.882 0 1 0 1.248 1.248L16 16.247l2.494 2.495a.882.882 0 0 0 1.248-1.248L17.247 15l2.495-2.495a.882.882 0 0 0-1.248-1.247L16 13.753l-2.495-2.495a.882.882 0 0 0-1.247 1.248L14.753 15l-2.495 2.494Z" fill="#F1F3F4" /></symbol><symbol viewBox="0 0 32 36" id="mt-logoFree"><g fill="none"><path d="M1.128 9.116 14.667.392a2.461 2.461 0 0 1 2.666 0l13.539 8.724A2.462 2.462 0 0 1 32 11.186v12.198a1.23 1.23 0 0 1-1.23 1.231H1.23A1.23 1.23 0 0 1 0 23.385v-12.2c0-.836.425-1.616 1.128-2.069z" fill="#00b878" /><path d="M4.308 3.077h23.384c.68 0 1.231.551 1.231 1.23v8.418c0 .884-.473 1.7-1.24 2.138L17.22 20.84a2.462 2.462 0 0 1-2.442 0L4.317 14.863a2.462 2.462 0 0 1-1.24-2.138V4.308c0-.68.551-1.231 1.23-1.231z" fill="#fff" /><path d="M27.692 3.077c.68 0 1.231.551 1.231 1.23v8.418c0 .884-.473 1.7-1.24 2.138L17.22 20.84a2.462 2.462 0 0 1-2.442 0L4.317 14.863a2.462 2.462 0 0 1-1.24-2.138V4.308c0-.68.551-1.231 1.23-1.231zm0 .615H4.308a.615.615 0 0 0-.612.544l-.004.072v8.417c0 .621.312 1.198.825 1.538l.106.065 10.461 5.978c.53.303 1.172.323 1.717.06l.115-.06 10.461-5.978c.54-.308.885-.865.927-1.48l.004-.123V4.308a.615.615 0 0 0-.544-.612z" fill="#f4f4f4" /><path d="M28.308 12.308v2.046a2.46 2.46 0 0 1-.625.509L17.22 20.84a2.462 2.462 0 0 1-2.442 0L4.317 14.863a2.46 2.46 0 0 1-.626-.51l.001-2.045z" fill="#fff" /><path d="m15.312 12.71 1.422-1.455.864.882 4.203-4.22c.558-.617 1.089-.686 1.592-.209.503.478.478 1.015-.075 1.611l-4.904 4.962c-.197.22-.469.329-.816.329s-.655-.172-.923-.516zm-6.697-.864c-.447-.486-.46-.971-.036-1.455.423-.483.909-.483 1.458 0l1.91 1.911 4.203-4.22c.558-.617 1.089-.686 1.592-.209.504.478.478 1.015-.075 1.611l-4.904 4.962c-.197.22-.469.329-.816.329s-.655-.172-.922-.516z" fill="#6964ce" /><rect fill="#dedede" height="13.617" rx="2.723" width="29.277" x="1.362" y="21.787" /><rect fill="#fff" height="12.255" rx="2.723" width="27.915" x="2.043" y="22.468" /><path d="M8.914 31v-2.119h2.061v-.778h-2.06v-1.317h2.254V26H8v5zm4.239 0v-1.95h.697L14.958 31h1.193l-1.348-2.034c.377-.097.666-.272.868-.524s.302-.554.302-.909c0-.467-.163-.837-.488-1.11-.33-.282-.793-.423-1.387-.423h-1.86v5zm.86-2.558h-.86v-1.656h.945c.31 0 .542.076.697.227.155.152.233.352.233.601s-.085.45-.256.6c-.17.152-.423.228-.76.228zM20.459 31v-.794h-2.324V28.89h2.177v-.786h-2.177v-1.317h2.324V26h-3.238v5zM25 31v-.794h-2.325V28.89h2.178v-.786h-2.178v-1.317H25V26h-3.239v5z" fill="#5396e5" /></g></symbol><symbol viewBox="0 0 32 36" id="mt-logoPro"><g fill="none"><path fill="#00B878" d="M1.128 9.116 14.667.392a2.461 2.461 0 0 1 2.666 0l13.539 8.724A2.462 2.462 0 0 1 32 11.186v12.198a1.23 1.23 0 0 1-1.23 1.231H1.23A1.23 1.23 0 0 1 0 23.385v-12.2c0-.836.425-1.616 1.128-2.069Z" /><path fill="#FFF" d="M4.308 3.077h23.384c.68 0 1.231.551 1.231 1.23v8.418c0 .884-.473 1.7-1.24 2.138L17.22 20.84a2.462 2.462 0 0 1-2.442 0L4.317 14.863a2.462 2.462 0 0 1-1.24-2.138V4.308c0-.68.551-1.231 1.23-1.231Z" /><path fill="#F4F4F4" d="M27.692 3.077c.68 0 1.231.551 1.231 1.23v8.418c0 .884-.473 1.7-1.24 2.138L17.22 20.84a2.462 2.462 0 0 1-2.442 0L4.317 14.863a2.462 2.462 0 0 1-1.24-2.138V4.308c0-.68.551-1.231 1.23-1.231h23.385Zm0 .615H4.308a.615.615 0 0 0-.612.544l-.004.072v8.417c0 .621.312 1.198.825 1.538l.106.065 10.461 5.978c.53.303 1.172.323 1.717.06l.115-.06 10.461-5.978c.54-.308.885-.865.927-1.48l.004-.123V4.308a.615.615 0 0 0-.544-.612l-.072-.004Z" /><path fill="#FFF" d="M28.308 12.308v2.046a2.46 2.46 0 0 1-.625.509L17.22 20.84a2.462 2.462 0 0 1-2.442 0L4.317 14.863a2.46 2.46 0 0 1-.626-.51l.001-2.045h24.616Z" /><path fill="#6964CE" d="m15.312 12.71 1.422-1.455.864.882 4.203-4.22c.558-.617 1.089-.686 1.592-.209.503.478.478 1.015-.075 1.611l-4.904 4.962c-.197.22-.469.329-.816.329s-.655-.172-.923-.516l-1.363-1.384Zm-6.697-.864c-.447-.486-.46-.971-.036-1.455.423-.483.909-.483 1.458 0l1.91 1.911 4.203-4.22c.558-.617 1.089-.686 1.592-.209.504.478.478 1.015-.075 1.611l-4.904 4.962c-.197.22-.469.329-.816.329s-.655-.172-.922-.516l-2.41-2.413Z" /><g transform="translate(1.362 21.787)"><rect width="29.277" height="13.617" fill="#DEDEDE" rx="2.723" /><rect width="27.915" height="12.255" x=".681" y=".681" fill="#FFF" rx="2.723" /></g><path fill="#5396E5" d="M9.934 31.197v-1.853h.864c.575 0 1.024-.14 1.346-.42.322-.28.483-.68.483-1.201 0-.52-.161-.921-.483-1.201-.322-.28-.77-.42-1.346-.42H9v5.095h.934Zm.864-2.662h-.864v-1.632h.864c.287 0 .505.077.651.231a.82.82 0 0 1 .22.589.807.807 0 0 1-.22.585c-.146.152-.364.227-.651.227Zm3.713 2.662V29.21h.706l1.123 1.986h1.208l-1.365-2.073c.382-.1.675-.277.879-.534a1.44 1.44 0 0 0 .306-.926c0-.476-.165-.853-.495-1.13-.335-.288-.803-.432-1.405-.432h-1.884v5.095h.927Zm.87-2.607h-.87v-1.687h.957c.314 0 .55.077.707.231.157.155.235.359.235.613a.781.781 0 0 1-.259.612c-.173.154-.429.231-.77.231Zm5.205 2.716c.707 0 1.264-.22 1.672-.659.43-.47.644-1.138.644-2.002 0-.858-.215-1.517-.644-1.978a1.985 1.985 0 0 0-.73-.498 2.504 2.504 0 0 0-.934-.169c-.712 0-1.269.217-1.672.652-.429.46-.644 1.125-.644 1.993 0 .859.215 1.52.644 1.986.408.45.963.675 1.664.675Zm.008-.84c-.413 0-.743-.155-.989-.467-.246-.31-.369-.758-.369-1.342 0-.583.123-1.033.37-1.35.245-.317.575-.475.988-.475.414 0 .742.158.985.475.244.317.365.768.365 1.354 0 .581-.121 1.027-.365 1.338-.243.312-.571.468-.985.468Z" /></g></symbol><symbol viewBox="0 0 30 35" id="mt-logoSales"><defs><filter x="-14.1%" y="-26.1%" width="128.2%" height="140.6%" filterUnits="objectBoundingBox" id="mt-logoSales_a"><feOffset dy="-1" in="SourceAlpha" result="shadowOffsetOuter1"></feOffset><feGaussianBlur stdDeviation="1" in="shadowOffsetOuter1" result="shadowBlurOuter1"></feGaussianBlur><feColorMatrix values="0 0 0 0 0 0 0 0 0 0 0 0 0 0 0 0 0 0 0.319001311 0" in="shadowBlurOuter1"></feColorMatrix></filter><filter x="-7.2%" y="-8.8%" width="114.4%" height="135.1%" filterUnits="objectBoundingBox" id="mt-logoSales_c"><feOffset dy="1" in="SourceAlpha" result="shadowOffsetOuter1"></feOffset><feGaussianBlur stdDeviation=".5" in="shadowOffsetOuter1" result="shadowBlurOuter1"></feGaussianBlur><feColorMatrix values="0 0 0 0 0 0 0 0 0 0 0 0 0 0 0 0 0 0 0.319001311 0" in="shadowBlurOuter1"></feColorMatrix></filter><rect id="mt-logoSales_d" x="1.125" y="20.685" width="27.75" height="11.407" rx="2" /><path d="M26.457 13.054 15.54 19.619c-.458.3-1.196.298-1.651-.01L3.302 13.064c-.454-.306-.821-.993-.821-1.541V3.577c0-.545.44-.987.988-.987h22.83c.546 0 .988.439.988.987v7.945c0 .545-.37 1.23-.83 1.532Z" id="mt-logoSales_b" /></defs><g fill="none" fill-rule="evenodd"><g fill-rule="nonzero"><path d="M0 11.721c0-.657.443-1.481.99-1.84L14.1 1.265c.547-.36 1.43-.354 1.976.015L28.78 9.865c.545.368.986 1.202.986 1.856v11.304c0 .657-.53 1.19-1.185 1.19H1.185A1.19 1.19 0 0 1 0 23.025V11.72Z" fill="#92D08C" /><g transform="translate(0 1)"><use fill="#000" filter="url(#mt-logoSales_a)" xlink:href="#mt-logoSales_b" /><use fill="#FFF" xlink:href="#mt-logoSales_b" /></g></g><path d="m14.006 13.148 1.355-1.39.824.843 4.006-4.034c.532-.59 1.037-.656 1.517-.2.48.457.456.97-.072 1.54l-4.673 4.743c-.188.21-.447.314-.778.314-.33 0-.624-.164-.879-.493l-1.3-1.323Zm-6.382-.825c-.426-.465-.438-.929-.035-1.39.404-.463.867-.463 1.39 0l1.82 1.826 4.006-4.035c.532-.589 1.038-.655 1.518-.198.48.456.455.97-.072 1.54l-4.674 4.741c-.187.21-.446.315-.777.315s-.624-.164-.88-.493l-2.296-2.306Z" fill="#405958" /><g fill-rule="nonzero" transform="translate(0 1)"><use fill="#000" filter="url(#mt-logoSales_c)" xlink:href="#mt-logoSales_d" /><use fill="#FFF" xlink:href="#mt-logoSales_d" /></g><path d="M5.182 30.067c.27 0 .532-.054.786-.162.254-.109.462-.272.624-.491a1.31 1.31 0 0 0 .243-.802c0-.384-.11-.694-.334-.931-.222-.237-.543-.428-.962-.572l-.303-.102c-.28-.094-.48-.193-.601-.294a.465.465 0 0 1-.182-.369c0-.149.064-.27.192-.362a.816.816 0 0 1 .49-.139.72.72 0 0 1 .475.152c.124.102.21.227.26.376l.803-.338a1.591 1.591 0 0 0-.52-.721c-.251-.206-.596-.308-1.032-.308-.302 0-.572.06-.81.179-.239.12-.423.283-.554.49a1.28 1.28 0 0 0-.195.691c0 .339.11.62.33.843.22.223.486.39.797.498l.297.108c.35.13.595.254.732.369a.552.552 0 0 1 .206.443c0 .18-.072.322-.216.423a.879.879 0 0 1-.52.153.849.849 0 0 1-.607-.23 1.27 1.27 0 0 1-.344-.616l-.858.338c.13.438.358.776.682 1.015.324.24.698.36 1.12.36Zm4.014-.108.405-1.158h1.85l.405 1.158h1.006l-1.816-4.847H10l-1.81 4.847h1.006Zm1.958-1.997H9.892l.432-1.219.175-.582h.054l.176.582.425 1.219Zm6.33 1.997v-.867h-2.045v-3.98h-.912v4.847h2.957Zm4.838 0v-.867H20.17V27.97h1.937v-.867H20.17v-1.124h2.153v-.866h-3.064v4.847h3.064Zm3.408.108c.27 0 .532-.054.786-.162.254-.109.462-.272.624-.491a1.31 1.31 0 0 0 .243-.802c0-.384-.111-.694-.334-.931-.223-.237-.543-.428-.962-.572l-.303-.102c-.28-.094-.48-.193-.601-.294a.465.465 0 0 1-.182-.369c0-.149.064-.27.192-.362a.816.816 0 0 1 .49-.139c.193 0 .351.05.475.152s.21.227.26.376l.803-.338a1.591 1.591 0 0 0-.52-.721c-.251-.206-.596-.308-1.032-.308-.302 0-.572.06-.81.179-.239.12-.423.283-.554.49a1.28 1.28 0 0 0-.195.691c0 .339.11.62.33.843.22.223.486.39.797.498l.297.108c.35.13.595.254.732.369a.552.552 0 0 1 .206.443c0 .18-.072.322-.216.423a.879.879 0 0 1-.52.153.849.849 0 0 1-.607-.23 1.27 1.27 0 0 1-.344-.616l-.858.338c.13.438.358.776.682 1.015.324.24.698.36 1.12.36Z" fill="#4A90E4" fill-rule="nonzero" /></g></symbol><symbol viewBox="0 0 30 24" id="mt-mailtrackLogo"><path fill-rule="evenodd" clip-rule="evenodd" d="m4.338 9.777 9.706-6.075a1.808 1.808 0 0 1 1.912 0l9.706 6.075c.504.316.809.859.809 1.442v8.495a.87.87 0 0 1-.883.857H4.412a.87.87 0 0 1-.883-.857V11.22c0-.583.305-1.126.81-1.442Z" fill="#00B878" /><path fill-rule="evenodd" clip-rule="evenodd" d="M6.618 5.571h16.764a.87.87 0 0 1 .883.858v5.862c0 .615-.34 1.183-.89 1.488l-7.5 4.163a1.81 1.81 0 0 1-1.75 0l-7.5-4.163a1.706 1.706 0 0 1-.89-1.488V6.429a.87.87 0 0 1 .883-.858Z" fill="#fff" /><path fill-rule="evenodd" clip-rule="evenodd" d="M23.382 5.571a.87.87 0 0 1 .883.858v5.862c0 .615-.34 1.183-.89 1.488l-7.5 4.163a1.81 1.81 0 0 1-1.75 0l-7.5-4.163a1.706 1.706 0 0 1-.89-1.488V6.429a.87.87 0 0 1 .883-.858h16.764Zm0 .429H6.618a.437.437 0 0 0-.439.379l-.003.05v5.862c0 .432.224.834.592 1.071l.075.045 7.5 4.163c.38.211.84.225 1.231.043l.083-.043 7.5-4.163c.386-.214.634-.602.664-1.03l.002-.086V6.429c0-.22-.17-.401-.39-.426L23.384 6Z" fill="#F4F4F4" /><path fill-rule="evenodd" clip-rule="evenodd" d="M23.824 12v1.425c-.127.14-.277.26-.448.354l-7.5 4.164a1.81 1.81 0 0 1-1.752 0l-7.5-4.164a1.754 1.754 0 0 1-.448-.355V12h17.648Z" fill="#fff" /><path fill-rule="evenodd" clip-rule="evenodd" d="m14.507 12.28 1.019-1.013.62.614 3.013-2.94c.4-.428.78-.477 1.141-.144.361.332.343.706-.054 1.122l-3.515 3.455c-.142.153-.337.23-.585.23-.25 0-.47-.12-.662-.36l-.977-.964ZM9.706 11.678c-.32-.338-.33-.676-.026-1.013.303-.337.651-.337 1.045 0l1.37 1.331 3.013-2.94c.4-.428.78-.477 1.141-.144.36.332.343.706-.054 1.122l-3.516 3.455c-.14.153-.336.23-.585.23-.248 0-.469-.12-.66-.36l-1.728-1.68Z" fill="#6964CE" /></symbol><symbol fill="none" viewBox="0 0 24 24" id="mt-manageAccount"><path d="M4.085 17.5v-.65c0-.34.16-.66.41-.81 1.69-1.01 3.62-1.54 5.59-1.54.03 0 .05 0 .08.01.1-.7.3-1.37.59-1.98-.22-.02-.44-.03-.67-.03-2.42 0-4.68.67-6.61 1.82-.88.52-1.39 1.5-1.39 2.53v2.65h9.26c-.42-.6-.75-1.28-.97-2h-6.29ZM10.085 11.5c2.21 0 4-1.79 4-4s-1.79-4-4-4-4 1.79-4 4 1.79 4 4 4Zm0-6c1.1 0 2 .9 2 2s-.9 2-2 2-2-.9-2-2 .9-2 2-2ZM20.835 15.5c0-.22-.03-.42-.06-.63l1.14-1.01-1-1.73-1.45.49c-.32-.27-.68-.48-1.08-.63l-.3-1.49h-2l-.3 1.49c-.4.15-.76.36-1.08.63l-1.45-.49-1 1.73 1.14 1.01c-.03.21-.06.41-.06.63 0 .22.03.42.06.63l-1.14 1.01 1 1.73 1.45-.49c.32.27.68.48 1.08.63l.3 1.49h2l.3-1.49c.4-.15.76-.36 1.08-.63l1.45.49 1-1.73-1.14-1.01c.03-.21.06-.41.06-.63Zm-3.75 2c-1.1 0-2-.9-2-2s.9-2 2-2 2 .9 2 2-.9 2-2 2Z" fill="currentColor" /></symbol><symbol viewBox="0 0 24 24" id="mt-materialError"><path d="M0 0h24v24H0z" fill="none" /><path fill="currentColor" d="M12 2C6.48 2 2 6.48 2 12s4.48 10 10 10 10-4.48 10-10S17.52 2 12 2zm1 15h-2v-2h2v2zm0-4h-2V7h2v6z" /></symbol><symbol fill="none" viewBox="0 0 18 18" id="mt-pdfFile"><g clip-path="url(#mt-pdfFile_a)"><path d="M15 1.5H6c-.825 0-1.5.675-1.5 1.5v9c0 .825.675 1.5 1.5 1.5h9c.825 0 1.5-.675 1.5-1.5V3c0-.825-.675-1.5-1.5-1.5ZM8.625 7.125c0 .622-.502 1.125-1.125 1.125h-.75v1.5H5.625v-4.5H7.5c.623 0 1.125.503 1.125 1.125v.75Zm3.75 1.5c0 .623-.502 1.125-1.125 1.125H9.375v-4.5h1.875c.623 0 1.125.503 1.125 1.125v2.25Zm3-2.25H14.25v.75h1.125V8.25H14.25v1.5h-1.125v-4.5h2.25v1.125Zm-8.625.75h.75v-.75h-.75v.75ZM3 4.5H1.5V15c0 .825.675 1.5 1.5 1.5h10.5V15H3V4.5Zm7.5 4.125h.75v-2.25h-.75v2.25Z" fill="#CF021C" /></g><defs></defs></symbol><clipPath id="mt-pdfFile_a"><path fill="#fff" d="M0 0h18v18H0z" /></clipPath><symbol fill="currentColor" viewBox="0 0 161 161" id="mt-pdfTracking"><path fill-rule="evenodd" clip-rule="evenodd" d="M26.9 21.754C57.915-8.569 109.73-7 142.697 25.262c32.969 32.262 17.123 72.97-13.845 103.279-30.969 30.308-72.583 45.816-105.552 13.554-32.968-32.262-27.384-90.032 3.6-120.34Z" fill="#F4F2FC" /><path d="M81.934 30.43h-46.79v104.856h79.487V63.127L81.934 30.43Z" fill="#fff" /><path d="M86.79 23.102H39.843c-6.455 0-11.737 5.39-11.737 11.978v95.831c0 6.588 5.223 11.979 11.678 11.979h70.479c6.456 0 11.737-5.391 11.737-11.979V59.038L86.79 23.102Zm23.473 107.809h-70.42v-95.83h41.079v29.946h29.341v65.884Z" fill="#D8D8D8" /><rect x="14.999" y="70" width="74" height="41" rx="4" fill="#E55A50" /><path d="M32.788 93.658H26.71v-3.536h6.078c.94 0 1.704-.14 2.294-.423.59-.292 1.021-.695 1.294-1.209.274-.513.41-1.093.41-1.737a4.14 4.14 0 0 0-.41-1.829c-.273-.564-.704-1.017-1.294-1.36-.59-.342-1.354-.513-2.294-.513h-4.374V101.5H23.5v-22h9.29c1.867 0 3.467.312 4.8.937 1.343.614 2.37 1.466 3.08 2.553.71 1.088 1.065 2.332 1.065 3.733 0 1.42-.355 2.649-1.065 3.686-.71 1.038-1.737 1.839-3.08 2.403-1.333.564-2.933.846-4.8.846ZM51.442 101.5h-5.194l.033-3.536h5.161c1.289 0 2.376-.267 3.26-.8.885-.544 1.551-1.335 2-2.373.458-1.037.687-2.291.687-3.762v-1.073c0-1.128-.13-2.12-.393-2.977-.251-.856-.628-1.576-1.13-2.16a4.7 4.7 0 0 0-1.852-1.315c-.732-.302-1.573-.453-2.523-.453h-5.34V79.5h5.34c1.595 0 3.053.252 4.374.755 1.333.494 2.485 1.204 3.457 2.131a9.448 9.448 0 0 1 2.245 3.324c.535 1.28.803 2.705.803 4.276v1.043c0 1.561-.268 2.987-.803 4.276a9.448 9.448 0 0 1-2.245 3.324c-.96.917-2.113 1.627-3.457 2.131-1.332.493-2.806.74-4.423.74Zm-2.408-22v22h-4.915v-22h4.915ZM69.85 79.5v22h-4.915v-22h4.915Zm9.502 9.398v3.536H68.506v-3.536h10.846ZM80.5 79.5v3.55H68.506V79.5H80.5ZM110.591 107.5c-2 2-15.167 15.5-21.5 22l-.5.5-8.5-8.5c-5.5-5.5-13-1-15.5 1.5s-4 6-3.5 9.5 1 5 4 8 13 14 16 16.5 5.5 3 8.5 3c2 0 5 0 8.5-3 1.288-1.104 4.167-4.833 5.5-6.5l7 7c5 5 13 2 15 0s10-9.5 14.5-14.5 11.5-12.5 17.5-19.5 1.5-13-1-15.5c-2.264-2.264-6.5-3.5-8-3.5s-4.5.5-7.5 3-3.5 3-9.5 9c-.5-4-2-6.5-4.5-9s-5.5-3.5-8.5-3.5-5.5 1-8 3.5Z" fill="#fff" /><path d="m115.798 136.181-8.451 8.609 5.205 5.321c1.571 2.059 3.375 3.089 5.412 3.089 2.038 0 3.633-.658 4.787-1.973l28.772-29.708c3.248-3.572 3.395-6.787.441-9.646-2.954-2.86-6.067-2.445-9.341 1.245l-24.659 25.275-2.166-2.212Z" fill="#00B878" /><path fill-rule="evenodd" clip-rule="evenodd" d="M69.514 135.661c-2.626-2.911-2.698-5.815-.216-8.712 2.482-2.896 5.335-2.896 8.558 0l11.205 11.444 24.659-25.275c3.273-3.69 6.387-4.105 9.341-1.245 2.954 2.859 2.807 6.074-.442 9.646l-28.771 29.708c-1.154 1.315-2.75 1.973-4.787 1.973s-3.841-1.03-5.412-3.089l-14.135-14.45Z" fill="#00B878" /><path fill-rule="evenodd" clip-rule="evenodd" d="M69.514 135.661c-2.626-2.911-2.698-5.815-.216-8.712 2.482-2.896 5.335-2.896 8.558 0l11.205 11.444 24.659-25.275c3.273-3.69 6.387-4.105 9.341-1.245 2.954 2.859 2.807 6.074-.442 9.646l-28.771 29.708c-1.154 1.315-2.75 1.973-4.787 1.973s-3.841-1.03-5.412-3.089l-14.135-14.45Z" fill="#00B878" /></symbol><symbol fill="none" viewBox="0 0 20 20" id="mt-personAdd"><path d="M10.834 6.667a3.332 3.332 0 1 0-6.667 0 3.332 3.332 0 1 0 6.667 0Zm-1.667 0c0 .916-.75 1.666-1.667 1.666s-1.667-.75-1.667-1.666C5.833 5.75 6.583 5 7.5 5s1.667.75 1.667 1.667ZM.833 15v1.667h13.334V15c0-2.217-4.442-3.333-6.667-3.333C5.275 11.667.833 12.783.833 15ZM2.5 15c.167-.592 2.75-1.667 5-1.667 2.242 0 4.817 1.067 5 1.667h-10Zm14.167-2.5V10h2.5V8.333h-2.5v-2.5H15v2.5h-2.5V10H15v2.5h1.667Z" fill="currentColor" /></symbol><symbol fill="none" viewBox="0 0 20 20" id="mt-personRemove"><path d="M11.667 6.667a3.332 3.332 0 1 0-6.667 0 3.332 3.332 0 1 0 6.667 0Zm-1.667 0c0 .917-.75 1.667-1.667 1.667-.916 0-1.666-.75-1.666-1.667S7.417 5 8.333 5C9.25 5 10 5.75 10 6.667ZM1.667 15v1.667H15V15c0-2.216-4.442-3.333-6.667-3.333-2.225 0-6.667 1.117-6.667 3.333Zm1.666 0c.167-.591 2.75-1.666 5-1.666 2.242 0 4.809 1.066 5 1.666h-10ZM19.166 8.334h-5V10h5V8.334Z" fill="currentColor" /></symbol><symbol viewBox="0 0 24 24" id="mt-plusCircle"><path d="M12 2C6.48 2 2 6.48 2 12s4.48 10 10 10 10-4.48 10-10S17.52 2 12 2Zm5 11h-4v4h-2v-4H7v-2h4V7h2v4h4v2Z" fill="currentColor" /></symbol><symbol fill="none" viewBox="0 0 24 24" id="mt-pricing"><path d="M2 7h4v10H2V7Zm5 12h10V5H7v14ZM9 7h6v10H9V7Zm9 0h4v10h-4V7Z" fill="currentColor" /></symbol><symbol viewBox="0 0 20 15" id="mt-read"><path d="M20 7.5c0 .21-.148.676-.443 1.396-.4.976-.858 1.795-1.375 2.455a9.482 9.482 0 0 1-3.082 2.523C13.622 14.624 11.922 15 10 15c-1.922 0-3.622-.375-5.1-1.126a9.184 9.184 0 0 1-3.082-2.523C1.316 10.706.865 9.887.466 8.896.156 8.176 0 7.71 0 7.5c0-.21.155-.676.466-1.396.399-.991.85-1.81 1.352-2.455a9.558 9.558 0 0 1 3.06-2.523C6.356.376 8.064 0 10 0s3.636.375 5.1 1.126a9.184 9.184 0 0 1 3.082 2.523c.517.66.968 1.479 1.352 2.455.31.72.466 1.186.466 1.396Zm-1.64 0c-.37-1.156-.85-2.102-1.442-2.838a7.267 7.267 0 0 0-2.528-2.094c-1.241-.646-2.705-.969-4.39-.969-1.685 0-3.156.323-4.412.969A7.61 7.61 0 0 0 3.06 4.662c-.591.736-1.072 1.682-1.441 2.838.37 1.156.85 2.102 1.44 2.838a7.61 7.61 0 0 0 2.529 2.094c1.256.631 2.723.946 4.4.946 1.679 0 3.146-.315 4.402-.946a7.328 7.328 0 0 0 2.528-2.094h.022c.577-.736 1.05-1.682 1.42-2.838Zm-5.655-2.77c.754.75 1.13 1.666 1.13 2.747 0 1.082-.372 2.001-1.119 2.76A3.67 3.67 0 0 1 10 11.373a3.67 3.67 0 0 1-2.716-1.138c-.747-.758-1.12-1.677-1.12-2.759 0-1.08.373-2 1.12-2.759A3.67 3.67 0 0 1 10 3.581c1.064 0 1.966.383 2.705 1.149Zm-1.109 1.126A2.16 2.16 0 0 0 10 5.18a2.16 2.16 0 0 0-1.596.676 2.23 2.23 0 0 0-.666 1.621c0 .631.222 1.172.666 1.622.443.45.975.676 1.596.676a2.16 2.16 0 0 0 1.596-.676 2.23 2.23 0 0 0 .666-1.622 2.23 2.23 0 0 0-.666-1.621Z" fill="#191919" /></symbol><symbol fill="none" viewBox="0 0 12 12" id="mt-refresh"><path d="M9.767 2.233A5.305 5.305 0 0 0 6 .667 5.326 5.326 0 0 0 .673 6 5.326 5.326 0 0 0 6 11.333c2.487 0 4.56-1.7 5.153-4H9.767A3.994 3.994 0 0 1 6 10c-2.207 0-4-1.793-4-4s1.793-4 4-4c1.107 0 2.093.46 2.813 1.187L6.667 5.333h4.666V.667L9.767 2.233Z" fill="currentColor" /></symbol><symbol viewBox="0 0 20 20" id="mt-schedule"><path fill-rule="evenodd" clip-rule="evenodd" d="m1.411 5.368 6.933-4.34c.415-.26.95-.26 1.365 0l6.933 4.34c.36.225.577.613.577 1.03v6.068a.621.621 0 0 1-.63.612H1.464a.621.621 0 0 1-.63-.612V6.397c0-.416.217-.804.577-1.03Z" fill="currentColor" /><path fill-rule="evenodd" clip-rule="evenodd" d="M3.04 2.364h11.973c.349 0 .63.274.63.612v4.187c0 .44-.242.845-.634 1.063L9.652 11.2a1.293 1.293 0 0 1-1.251 0L3.044 8.226a1.219 1.219 0 0 1-.635-1.063V2.976c0-.338.282-.612.63-.612Z" fill="#fff" /><path fill-rule="evenodd" clip-rule="evenodd" d="M15.014 2.083c.403 0 .82.358.82.834v4.187c0 .44-.433.904-.825 1.122L9.652 11.2a1.293 1.293 0 0 1-1.251 0L3.044 8.226c-.393-.218-.96-.623-.96-1.063V2.976c0-.476.416-.893.955-.893h11.975Zm0 .587H3.039a.312.312 0 0 0-.313.27l-.002.036v4.187c0 .31.16.596.422.765l.054.033 5.357 2.973c.272.15.6.161.88.03l.058-.03 5.357-2.973a.916.916 0 0 0 .474-.736l.003-.062V2.976a.31.31 0 0 0-.279-.304l-.037-.002Z" fill="currentColor" /><path fill-rule="evenodd" clip-rule="evenodd" d="M15.329 6.956v1.017c-.09.1-.198.186-.32.253L9.652 11.2a1.293 1.293 0 0 1-1.251 0L3.044 8.226a1.253 1.253 0 0 1-.32-.253V6.956h12.605Z" fill="#fff" /><path fill-rule="evenodd" clip-rule="evenodd" d="m8.674 7.155.728-.723.443.439 2.152-2.1c.285-.306.557-.34.815-.103.258.237.245.504-.039.801l-2.51 2.468a.54.54 0 0 1-.418.164c-.178 0-.336-.086-.473-.257l-.698-.689ZM5.245 6.726c-.23-.242-.236-.483-.019-.724.217-.24.466-.24.747 0l.978.951 2.152-2.1c.286-.306.558-.34.815-.103.258.237.245.505-.038.801L7.369 8.02a.54.54 0 0 1-.418.164c-.178 0-.335-.086-.472-.257l-1.234-1.2Z" fill="currentColor" /><circle cx="13.333" cy="13.333" r="5.833" fill="currentColor" /><circle cx="13.333" cy="13.333" fill="#fff" r="4.167" /><path d="M13.75 10.833H12.5v3.334l2.5 1.666.625-1.025-1.875-1.266v-2.709Z" fill="currentColor" /></symbol><symbol fill="none" viewBox="0 0 24 24" id="mt-scheduleSend"><path d="M16.5 11c-2.76 0-5 2.24-5 5s2.24 5 5 5 5-2.24 5-5-2.24-5-5-5Zm1.65 7.35L16 16.2V13h1v2.79l1.85 1.85-.7.71Z" fill="currentColor" /><path d="m10.5 11-6-1.5V6.01l8.87 3.74c.94-.47 2-.75 3.13-.75.1 0 .19.01.28.01L2.5 3v16l7-2.95V16c0-.8.14-1.56.39-2.28L4.5 15.99V12.5l6-1.5Z" fill="currentColor" /></symbol><symbol fill="none" viewBox="0 0 24 24" id="mt-settings"><path d="M19.432 12.98c.04-.32.07-.64.07-.98 0-.34-.03-.66-.07-.98l2.11-1.65c.19-.15.24-.42.12-.64l-2-3.46a.5.5 0 0 0-.61-.22l-2.49 1c-.52-.4-1.08-.73-1.69-.98l-.38-2.65a.488.488 0 0 0-.49-.42h-4c-.25 0-.46.18-.49.42l-.38 2.65c-.61.25-1.17.59-1.69.98l-2.49-1a.566.566 0 0 0-.18-.03c-.17 0-.34.09-.43.25l-2 3.46c-.13.22-.07.49.12.64l2.11 1.65c-.04.32-.07.65-.07.98 0 .33.03.66.07.98l-2.11 1.65c-.19.15-.24.42-.12.64l2 3.46a.5.5 0 0 0 .61.22l2.49-1c.52.4 1.08.73 1.69.98l.38 2.65c.03.24.24.42.49.42h4c.25 0 .46-.18.49-.42l.38-2.65c.61-.25 1.17-.59 1.69-.98l2.49 1c.06.02.12.03.18.03.17 0 .34-.09.43-.25l2-3.46c.12-.22.07-.49-.12-.64l-2.11-1.65Zm-1.98-1.71c.04.31.05.52.05.73 0 .21-.02.43-.05.73l-.14 1.13.89.7 1.08.84-.7 1.21-1.27-.51-1.04-.42-.9.68c-.43.32-.84.56-1.25.73l-1.06.43-.16 1.13-.2 1.35h-1.4l-.35-2.48-1.06-.43c-.43-.18-.83-.41-1.23-.71l-.91-.7-1.06.43-1.27.51-.7-1.21 1.08-.84.89-.7-.14-1.13c-.03-.31-.05-.54-.05-.74 0-.2.02-.43.05-.73l.14-1.13-.89-.7-1.08-.84.7-1.21 1.27.51 1.04.42.9-.68c.43-.32.84-.56 1.25-.73l1.06-.43.16-1.13.2-1.35h1.39l.35 2.48 1.06.43c.43.18.83.41 1.23.71l.91.7 1.06-.43 1.27-.51.7 1.21-1.07.85-.89.7.14 1.13ZM12.002 8c-2.21 0-4 1.79-4 4s1.79 4 4 4 4-1.79 4-4-1.79-4-4-4Zm0 6c-1.1 0-2-.9-2-2s.9-2 2-2 2 .9 2 2-.9 2-2 2Z" fill="currentColor" /></symbol><symbol viewBox="0 0 20 20" fill="none" id="mt-signature"><path d="m15.919 8.658.883-.883a1.67 1.67 0 0 0 0-2.358l-1.175-1.175a1.67 1.67 0 0 0-2.358 0l-.884.883 3.534 3.533Zm-3.534 1.184-6 5.991H5.21v-1.175l5.992-5.991 1.183 1.175ZM11.202 6.3l-7.658 7.667V17.5h3.533l7.658-7.658L11.202 6.3Zm4.842 8.283c0 1.825-2.117 2.917-4.167 2.917a.836.836 0 0 1-.833-.833c0-.459.375-.834.833-.834 1.283 0 2.5-.608 2.5-1.25 0-.391-.4-.725-1.025-1l1.233-1.233c.892.525 1.459 1.225 1.459 2.233ZM4.027 11.125C3.22 10.658 2.71 10.05 2.71 9.167c0-1.5 1.575-2.192 2.967-2.8.858-.384 2.033-.9 2.033-1.367 0-.342-.65-.833-1.666-.833-1.05 0-1.5.508-1.525.533a.846.846 0 0 1-1.167.1.827.827 0 0 1-.125-1.15c.092-.117.95-1.15 2.817-1.15C7.91 2.5 9.377 3.6 9.377 5c0 1.558-1.608 2.267-3.033 2.892-.784.341-1.967.858-1.967 1.275 0 .258.358.5.892.716l-1.242 1.242Z" fill="currentColor" /></symbol><symbol fill="none" viewBox="0 0 18 18" id="mt-signed"><path fill-rule="evenodd" clip-rule="evenodd" d="m14.932 6.997-.795.796-3.18-3.18.795-.796a1.503 1.503 0 0 1 2.123 0l1.057 1.058a1.503 1.503 0 0 1 0 2.122ZM3 12.57l6.893-6.9 3.18 3.188L6.18 15.75H3v-3.18Zm7.5 3.18c1.845 0 3.75-.982 3.75-2.625 0-.908-.51-1.537-1.313-2.01l-1.11 1.11c.563.248.923.548.923.9 0 .578-1.095 1.125-2.25 1.125a.752.752 0 0 0-.75.75c0 .412.338.75.75.75Zm-8.25-7.5c0 .795.458 1.342 1.185 1.762l1.118-1.117c-.48-.195-.803-.412-.803-.645 0-.375 1.065-.84 1.77-1.147 1.283-.563 2.73-1.2 2.73-2.603 0-1.26-1.32-2.25-3-2.25s-2.453.93-2.535 1.035a.744.744 0 0 0 .113 1.035.761.761 0 0 0 1.053-.093c.046-.048.454-.477 1.369-.477s1.5.442 1.5.75c0 .413-1.023.87-1.791 1.213l-.039.017c-1.252.547-2.67 1.17-2.67 2.52Zm9.413.637-1.8-1.8-5.89 5.892.057 1.741 1.742.058 5.89-5.89Z" fill="#333" /></symbol><symbol viewBox="0 0 25 12" id="mt-singleCheck"><g fill="none"><path fill="#C5C5C5" d="m10.898 8.996 2.122-2.121 1.459 1.414 7.084-6.866a1.5 1.5 0 1 1 2.087 2.154l-8.127 7.878a1.5 1.5 0 0 1-2.088 0l-2.537-2.459Z" /><path fill="#66CB87" d="m5.312 8.289 7.084-6.866a1.5 1.5 0 0 1 2.088 2.154l-8.128 7.878a1.5 1.5 0 0 1-2.088 0L.456 7.76a1.5 1.5 0 0 1 2.088-2.154l2.768 2.683Z" /></g></symbol><symbol viewBox="0 0 24 24" id="mt-spinner"><path fill="currentColor" d="M12 22a1 1 0 0 1 0-2 8 8 0 0 0 8-8 1 1 0 0 1 2 0c0 5.523-4.477 10-10 10Zm0-20a1 1 0 1 1 0 2 8 8 0 0 0-8 8 1 1 0 1 1-2 0C2 6.477 6.477 2 12 2Z" /></symbol><symbol viewBox="0 0 24 24" id="mt-spreadsheets"><path fill-rule="evenodd" clip-rule="evenodd" d="M6 4a2 2 0 0 0-2 2v12a2 2 0 0 0 2 2h12a2 2 0 0 0 2-2V6a2 2 0 0 0-2-2H6Zm3 2h2v3h7v2h-7v7H9v-7H6V9h3V6Z" fill="#0F9D58" /></symbol><symbol viewBox="0 0 444 444" id="mt-spreadsheetsFunnel"><path fill-rule="evenodd" clip-rule="evenodd" d="M183.161 75.678c83.602-25.773 173.225 25.334 200.207 113.996 26.983 88.661-39.996 147.152-123.597 172.834-83.602 25.683-171.663 14.888-198.615-73.773C34.204 200.074 99.559 101.376 183.16 75.678ZM70.676 59.338c16.749-5.163 34.704 5.075 40.109 22.838 5.406 17.762-8.012 29.48-24.761 34.625-16.749 5.146-34.391 2.983-39.79-14.779-5.4-17.763 7.693-37.536 24.442-42.684ZM125.259 45.639c7.996-2.465 16.569 2.423 19.149 10.903 2.581 8.48-3.825 14.075-11.821 16.531-7.997 2.457-16.419 1.424-18.997-7.056-2.578-8.48 3.673-17.92 11.669-20.378Z" fill="#F4F2FC" /><g mask="url(#mt-spreadsheetsFunnel_a)"><path d="M323.763 175H287.57c-3.512 0-6.386 2.874-6.386 6.387v80.9c0 3.513 2.874 6.387 6.386 6.387h55.353c3.513 0 6.387-2.874 6.387-6.387v-61.739l-14.902-10.645L323.763 175Z" fill="#0F9D58" /></g><g mask="url(#mt-spreadsheetsFunnel_b)"><path d="M298.215 220.772v30.87h34.063v-30.87h-34.063Zm14.903 26.612h-10.645v-5.322h10.645v5.322Zm0-8.515h-10.645v-5.323h10.645v5.323Zm0-8.516h-10.645v-5.323h10.645v5.323Zm14.902 17.031h-10.645v-5.322h10.645v5.322Zm0-8.515h-10.645v-5.323h10.645v5.323Zm0-8.516h-10.645v-5.323h10.645v5.323Z" fill="#F1F1F1" /></g><g mask="url(#mt-spreadsheetsFunnel_c)"><path d="m325.633 198.679 23.679 23.674v-21.806l-23.679-1.868Z" fill="url(#mt-spreadsheetsFunnel_d)" /></g><g mask="url(#mt-spreadsheetsFunnel_e)"><path d="M323.766 175v19.161a6.386 6.386 0 0 0 6.387 6.387h19.16L323.766 175Z" fill="#87CEAC" /></g><g mask="url(#mt-spreadsheetsFunnel_f)"><path d="M287.57 175c-3.512 0-6.386 2.874-6.386 6.387v.532c0-3.513 2.874-6.387 6.386-6.387h36.193V175H287.57Z" fill="#fff" fill-opacity=".2" /></g><g mask="url(#mt-spreadsheetsFunnel_g)"><path d="M342.923 268.142H287.57c-3.512 0-6.386-2.874-6.386-6.387v.532c0 3.513 2.874 6.387 6.386 6.387h55.353c3.513 0 6.387-2.874 6.387-6.387v-.532c0 3.513-2.874 6.387-6.387 6.387Z" fill="#263238" fill-opacity=".2" /></g><g mask="url(#mt-spreadsheetsFunnel_h)"><path d="M330.149 200.548a6.386 6.386 0 0 1-6.387-6.387v.532a6.385 6.385 0 0 0 6.387 6.387h19.16v-.532h-19.16Z" fill="#263238" fill-opacity=".1" /></g><path d="M323.767 175h-36.193c-3.512 0-6.386 2.874-6.386 6.387v80.9c0 3.513 2.874 6.387 6.386 6.387h55.353c3.513 0 6.387-2.874 6.387-6.387v-61.739L323.767 175Z" fill="url(#mt-spreadsheetsFunnel_i)" /><path fill-rule="evenodd" clip-rule="evenodd" d="m86.984 214.999 47.799-30.926a8.66 8.66 0 0 1 9.413 0l47.799 30.926a8.738 8.738 0 0 1 3.984 7.337v43.245c0 2.41-1.946 4.364-4.346 4.364H87.345c-2.4 0-4.345-1.954-4.345-4.364v-43.245c0-2.967 1.5-5.73 3.984-7.337Z" fill="#00B878" /><g filter="url(#mt-spreadsheetsFunnel_j)"><path fill-rule="evenodd" clip-rule="evenodd" d="M93.863 195.59a2 2 0 0 1 2-2h87.252a2 2 0 0 1 2 2v34.952a3.998 3.998 0 0 1-2.009 3.469l-41.626 23.884a4.001 4.001 0 0 1-3.981 0l-41.626-23.884a4 4 0 0 1-2.01-3.469V195.59Z" fill="#fff" /></g><path fill-rule="evenodd" clip-rule="evenodd" d="m137.064 227.738 5.02-5.157 3.052 3.128 14.839-14.963c1.97-2.184 3.843-2.43 5.621-.737 1.778 1.693 1.689 3.596-.266 5.71l-17.313 17.588c-.695.779-1.655 1.168-2.881 1.168-1.226 0-2.311-.609-3.257-1.829l-4.815-4.908ZM113.422 224.677c-1.581-1.724-1.624-3.443-.13-5.158 1.493-1.714 3.21-1.714 5.149 0l6.743 6.775 14.839-14.963c1.97-2.184 3.844-2.43 5.621-.737 1.778 1.692 1.689 3.596-.266 5.71l-17.313 17.588c-.695.779-1.655 1.168-2.881 1.168-1.226 0-2.311-.609-3.257-1.829l-8.505-8.554Z" fill="#6964CE" /><path d="M259.185 236.64h-17.28v17.28h-6.647v-17.28h-17.279v-6.646h17.279v-17.28h6.647v17.28h17.28v6.646Z" fill="#6964CE" /><defs><filter id="mt-spreadsheetsFunnel_j" x="91.863" y="190.59" width="95.252" height="68.835" filterUnits="userSpaceOnUse" color-interpolation-filters="sRGB"><feFlood flood-opacity="0" result="BackgroundImageFix"></feFlood><feColorMatrix in="SourceAlpha" values="0 0 0 0 0 0 0 0 0 0 0 0 0 0 0 0 0 0 127 0" result="hardAlpha"></feColorMatrix><feOffset dy="-1"></feOffset><feGaussianBlur stdDeviation="1"></feGaussianBlur><feColorMatrix values="0 0 0 0 0.227451 0 0 0 0 0.713726 0 0 0 0 0.376471 0 0 0 0.5 0"></feColorMatrix><feBlend in2="BackgroundImageFix" result="effect1_dropShadow_730_5426"></feBlend><feBlend in="SourceGraphic" in2="effect1_dropShadow_730_5426" result="shape"></feBlend></filter></defs></symbol><mask id="mt-spreadsheetsFunnel_a" style="mask-type:alpha" maskUnits="userSpaceOnUse" x="281" y="175" width="69" height="94"><path d="M323.763 175H287.57c-3.512 0-6.386 2.874-6.386 6.387v80.9c0 3.513 2.874 6.387 6.386 6.387h55.353c3.513 0 6.387-2.874 6.387-6.387v-61.739L323.763 175Z" fill="#fff" /></mask><mask id="mt-spreadsheetsFunnel_b" style="mask-type:alpha" maskUnits="userSpaceOnUse" x="281" y="175" width="69" height="94"><path d="M323.763 175H287.57c-3.512 0-6.386 2.874-6.386 6.387v80.9c0 3.513 2.874 6.387 6.386 6.387h55.353c3.513 0 6.387-2.874 6.387-6.387v-61.739L323.763 175Z" fill="#fff" /></mask><mask id="mt-spreadsheetsFunnel_c" style="mask-type:alpha" maskUnits="userSpaceOnUse" x="281" y="175" width="69" height="94"><path d="M323.763 175H287.57c-3.512 0-6.386 2.874-6.386 6.387v80.9c0 3.513 2.874 6.387 6.386 6.387h55.353c3.513 0 6.387-2.874 6.387-6.387v-61.739L323.763 175Z" fill="#fff" /></mask><mask id="mt-spreadsheetsFunnel_e" style="mask-type:alpha" maskUnits="userSpaceOnUse" x="281" y="175" width="69" height="94"><path d="M323.763 175H287.57c-3.512 0-6.386 2.874-6.386 6.387v80.9c0 3.513 2.874 6.387 6.386 6.387h55.353c3.513 0 6.387-2.874 6.387-6.387v-61.739L323.763 175Z" fill="#fff" /></mask><mask id="mt-spreadsheetsFunnel_f" style="mask-type:alpha" maskUnits="userSpaceOnUse" x="281" y="175" width="69" height="94"><path d="M323.763 175H287.57c-3.512 0-6.386 2.874-6.386 6.387v80.9c0 3.513 2.874 6.387 6.386 6.387h55.353c3.513 0 6.387-2.874 6.387-6.387v-61.739L323.763 175Z" fill="#fff" /></mask><mask id="mt-spreadsheetsFunnel_g" style="mask-type:alpha" maskUnits="userSpaceOnUse" x="281" y="175" width="69" height="94"><path d="M323.763 175H287.57c-3.512 0-6.386 2.874-6.386 6.387v80.9c0 3.513 2.874 6.387 6.386 6.387h55.353c3.513 0 6.387-2.874 6.387-6.387v-61.739L323.763 175Z" fill="#fff" /></mask><mask id="mt-spreadsheetsFunnel_h" style="mask-type:alpha" maskUnits="userSpaceOnUse" x="281" y="175" width="69" height="94"><path d="M323.763 175H287.57c-3.512 0-6.386 2.874-6.386 6.387v80.9c0 3.513 2.874 6.387 6.386 6.387h55.353c3.513 0 6.387-2.874 6.387-6.387v-61.739L323.763 175Z" fill="#fff" /></mask><radialGradient id="mt-spreadsheetsFunnel_i" cx="0" cy="0" r="1" gradientUnits="userSpaceOnUse" gradientTransform="translate(283.346 176.862) scale(109.853)"><stop stop-color="#fff" stop-opacity=".1" /><stop offset="1" stop-color="#fff" stop-opacity="0" /></radialGradient><linearGradient id="mt-spreadsheetsFunnel_d" x1="337.474" y1="200.712" x2="337.474" y2="222.357" gradientUnits="userSpaceOnUse"><stop stop-color="#263238" stop-opacity=".2" /><stop offset="1" stop-color="#263238" stop-opacity=".02" /></linearGradient><symbol viewBox="0 0 159 200" id="mt-trackedCopiesFunnel"><path fill-rule="evenodd" clip-rule="evenodd" d="M140.01 25.812C107.386-7.1 56.137-8.76 25.543 22.104-5.052 52.97-10.52 111.845 22.105 144.756c32.625 32.912 73.737 17.171 104.331-13.693 30.595-30.864 46.198-72.339 13.574-105.25ZM48.895 46.05c.174.084.335.196.477.329.128-.46.22-.922.278-1.383a104.799 104.799 0 0 1-14.119 6.759.083.083 0 0 1 .055.033.087.087 0 0 1-.018.118c-.307.231-.57.523-.771.852.262.101.503.27.738.437l.002.002c.35.247.68.48 1.046.471.418-.01.785-.268 1.174-.54l.001-.002c.387-.27.786-.551 1.267-.602.243-.025.479.013.706.05.181.03.353.058.523.054a1.414 1.414 0 0 0 1.1-.587l.037-.053.014-.02c.1-.15.213-.317.414-.383.151-.049.296-.02.423.005.57.113 1.03.109 1.416-.008.467-.142.839-.475.97-.869.017-.047.03-.097.043-.146.043-.158.092-.337.222-.478.164-.178.402-.232.575-.271l1.523-.346h.002c.11-.025.236-.053.318-.119.08-.064.133-.173.188-.289.046-.095.093-.193.161-.283.157-.208.383-.324.601-.436h.001c.239-.123.445-.23.516-.427a.166.166 0 0 1 .059-.076l.014-.033.018-.041.017-.039a1.556 1.556 0 0 0-.998-.536.083.083 0 0 1-.072-.094.085.085 0 0 1 .093-.075c.402.047.775.241 1.05.535.048-.113.092-.227.135-.342a1.178 1.178 0 0 0-.842-.462.082.082 0 0 1-.076-.09.085.085 0 0 1 .09-.08c.345.025.669.19.897.45l.011-.031.005-.013.007-.019c.047-.136.09-.272.131-.408a1.719 1.719 0 0 0-.494-.36.085.085 0 0 1-.039-.113.084.084 0 0 1 .111-.04Zm-5.228 7.206a1.606 1.606 0 0 0-.132-.605.08.08 0 0 0-.11-.04.086.086 0 0 0-.04.112c.084.193.123.405.117.618-.138.067-.277.132-.417.193a2.015 2.015 0 0 0-.393-.842.08.08 0 0 0-.116-.01.086.086 0 0 0-.012.118c.183.227.307.507.365.798-.107.045-.215.09-.324.131a1.929 1.929 0 0 0-.49-.92.081.081 0 0 0-.117.001.086.086 0 0 0-.002.12c.226.233.384.533.453.855-1.767.636-3.66.767-5.435.257.33-.11.626-.317.915-.522.364-.258.708-.5 1.099-.543.197-.021.398.011.61.046h.005c.185.03.376.06.573.056a1.743 1.743 0 0 0 1.4-.798l.008-.011v-.002c.076-.112.147-.217.237-.247.068-.022.158-.004.267.017.603.119 1.109.111 1.544-.023.564-.173 1.017-.588 1.183-1.084.018-.053.034-.11.049-.165.035-.13.069-.254.141-.333.086-.092.231-.132.398-.17l1.507-.347h.002c.137-.033.308-.072.448-.185.14-.112.214-.268.28-.405v-.002c.04-.083.078-.161.126-.224.109-.144.289-.238.48-.338l.01-.005.022-.011a11.066 11.066 0 0 1-1.78 2.39.797.797 0 0 0-.544-.32.085.085 0 0 0-.092.075.082.082 0 0 0 .071.093c.18.02.344.122.447.272-.097.096-.196.19-.297.283a1.536 1.536 0 0 0-.847-.407.084.084 0 0 0-.093.072.084.084 0 0 0 .069.094c.277.038.54.166.746.357a11.07 11.07 0 0 1-2.33 1.6Zm-9.346-.929c.047-.089.1-.176.157-.26l-.41.135c.052.041.106.08.16.12l.065.048a2.38 2.38 0 0 0-.15.267l.067.048.037.027a1.1 1.1 0 0 1 .15.027 2.96 2.96 0 0 1 .725-.828c-.232.093-.464.185-.697.276a2.16 2.16 0 0 0-.104.14Zm-8.323 1.693c1.635-.102 3.236-.6 4.736-1.102a103.43 103.43 0 0 0 19.176-8.68c2.447-1.423 5.003-3.039 7.116-5.196.867-.886 1.203-1.66.998-2.301-.118-.372-.438-.706-.88-.917-.907-.434-2.03-.277-3.012-.094a49.576 49.576 0 0 0-6.993 1.842l.166.172a40.067 40.067 0 0 1 6.727-1.292c.44-.045.93-.072 1.316.148-.303-.085-.655-.062-.977-.03-1.484.15-2.966.386-4.429.703-.73.09-1.456.222-2.173.395l.096.114-.127.035.008.01.132-.03c.034.04.068.081.101.123a9.832 9.832 0 0 1 4.056-.115c.464.085 1.033.247 1.314.742.355.624.082 1.466-.73 2.253-1.257 1.218-2.764 2.139-4.205 2.953a68.885 68.885 0 0 1-8.652 4.117c-4.265 1.675-7.582 2.446-10.755 2.5-.665.012-1.373-.01-2.042-.24l-.012-.004c-.193-.067-.433-.174-.572-.406-.23-.386-.072-.895.434-1.397a25.145 25.145 0 0 1 3.15-2.643 11.811 11.811 0 0 1-.074-.774 16.003 16.003 0 0 0-3.967 4.036c-.263.386-.52.84-.44 1.281.147.797 1.224.98 1.55 1.017 1.547.176 3.093-.165 4.543-.53a69.63 69.63 0 0 0 19.213-8.052c1.381-.839 2.905-1.868 3.51-3.465.174-.46.206-.851.094-1.162a1.037 1.037 0 0 0-.181-.316c.231.158.395.36.486.604.13.346.1.772-.087 1.264-.615 1.62-2.168 2.644-3.575 3.476a69.84 69.84 0 0 1-19.312 7.813c-1.407.337-3.04.68-4.624.492a3.337 3.337 0 0 1-.673-.152c-.442-.152-.93-.444-1.037-.996-.097-.497.177-.98.459-1.389a15.755 15.755 0 0 1 3.183-3.389c-1.64 1.137-3.385 2.534-4.3 4.437-.175.365-.395.91-.276 1.428.194.852 1.182 1.257 1.967 1.346 1.27.143 2.538-.179 3.835-.55a94.059 94.059 0 0 0 20.958-8.886c.87-.501 1.728-1.038 2.48-1.648-.81.7-1.76 1.303-2.724 1.862a94.055 94.055 0 0 1-20.943 8.963c-1.309.38-2.591.71-3.886.565a3.453 3.453 0 0 1-.734-.165c-.629-.216-1.215-.634-1.366-1.308-.129-.57.105-1.153.291-1.542 1.123-2.34 3.445-3.92 5.335-5.191l-.004-.145-.001-.056a27.735 27.735 0 0 0-6.043 5.253c-.576.67-1.154 1.468-1.073 2.306.062.646.55 1.274 1.246 1.601.575.27 1.275.369 2.203.312Zm11.623-19.041a8.733 8.733 0 0 0-1.806.578 8.397 8.397 0 0 0-2.55 1.774c.364.302.703.423 1.007.355.245-.055.446-.224.66-.402.177-.149.36-.302.575-.392.378-.157.787-.097 1.182-.038h.001c.432.064.841.125 1.189-.09.097-.06.183-.139.274-.222.07-.064.14-.13.219-.187.285-.21.624-.293.951-.373h.002l.005-.001c.12-.03.24-.059.356-.094.195-.06.836-.294.91-.83 0-.002.017-.096.05-.194a9.626 9.626 0 0 0-1.607-.061l.042.207a.086.086 0 0 1-.062.1.076.076 0 0 1-.043-.001.078.078 0 0 1-.051-.06l-.048-.238a9.246 9.246 0 0 0-.518.047c.077.159.132.33.156.507a.085.085 0 0 1-.068.096.075.075 0 0 1-.038-.003.08.08 0 0 1-.052-.064 1.523 1.523 0 0 0-.167-.513 9.38 9.38 0 0 0-.395.064c.144.234.2.528.138.806a.083.083 0 0 1-.105.063.081.081 0 0 1-.051-.095.926.926 0 0 0-.156-.74Zm-5.495 5.736a1.439 1.439 0 0 1-.948-.579 9.182 9.182 0 0 1 .845-1.566c.106.302.326.573.623.754.096.06.198.107.302.143.309.106.638.107.925-.005.227-.089.425-.233.617-.372.257-.188.5-.364.776-.378.224-.01.45.088.688.192h.001c.313.137.636.278.992.184.274-.073.468-.26.656-.443l.002-.002c.115-.111.225-.217.347-.291.263-.16.62-.192.963-.222.521-.047 1.06-.095 1.346-.577.046-.079.08-.16.112-.24v-.002c.05-.124.094-.23.171-.29.084-.065.214-.077.351-.09l.074-.006a2.552 2.552 0 0 0 1.788-1.042l.036-.052c.082-.115.271-.383.37-.356.038.01.075.005.109-.01.494.187.966.404 1.415.65l-.64 1.128a.084.084 0 0 0 .031.114l.007.003.003.002.005.001a.083.083 0 0 0 .099-.038l.64-1.13c.102.058.203.118.303.179l-.631.87a.084.084 0 0 0 .039.129c.034.011.072 0 .094-.03l.64-.881c.128.081.254.165.378.252a2.468 2.468 0 0 0-.515.551.084.084 0 0 0 .041.127c.035.012.075 0 .096-.033.141-.21.318-.394.519-.547.298.215.581.445.85.686-.745-.005-1.424.479-1.795.806-.177.157-.347.324-.512.486-.386.38-.75.739-1.202.971a5.087 5.087 0 0 1-.66.266l-.005.002c-.303.106-.616.216-.898.399a4.46 4.46 0 0 0-.566.458c-.296.269-.576.522-.925.596-.181.038-.372.026-.574.012a3.45 3.45 0 0 0-.45-.01c-.54.034-1.007.301-1.46.56-.319.182-.649.37-.992.465-.386.107-.815.103-1.23.099-.596-.006-1.212-.012-1.753.3a3.44 3.44 0 0 0-.572.448 3.271 3.271 0 0 1-.492.392c-.38.228-.88.25-1.343.06a1.583 1.583 0 0 1-.792-.694c.046-.45.12-.896.222-1.336a1.02 1.02 0 0 0 .352.119.084.084 0 0 0 .023-.167.818.818 0 0 1-.332-.12c.045-.179.093-.355.147-.53.112.116.249.21.401.262.049.017.098.03.15.038a.084.084 0 0 0 .095-.069.083.083 0 0 0-.067-.096.846.846 0 0 1-.52-.32l.023-.075a9.667 9.667 0 0 1 .184-.506c.19.227.44.404.718.5.092.032.186.054.282.068a.084.084 0 0 0 .023-.167Zm-.1 9.108c-.201-.386-.379-.785-.533-1.194.393-.197.894-.152 1.294-.014l.02.006c.191.068.382.155.567.24.365.166.743.338 1.154.378l.014.001.021.002c-.88.247-1.72.44-2.536.581Zm3.527-4.463c-.155.324-.505.562-.936.635-.208.036-.44-.014-.563-.123a.258.258 0 0 1-.096-.205.08.08 0 0 0-.08-.083.084.084 0 0 0-.083.083c-.002.13.05.244.151.333.185.16.483.196.696.16.205-.035.392-.106.555-.202h.003l.002-.001c.589-.325 1.065-.862 1.525-1.38l.001-.001c.425-.48.865-.974 1.384-1.289.209-.126.618-.318.974-.186.338.125.538.543.429.895-.11.352-.512.584-.861.496-.185-.047-.333-.176-.376-.33a.08.08 0 0 0-.102-.056.085.085 0 0 0-.056.104c.06.213.25.384.492.444.281.07.588-.029.806-.226h.002l.002-.002.006-.002c.736-.61 1.373-1.303 1.796-1.949l.082-.126c.198-.309.404-.628.706-.812.196-.12.439-.186.763-.211.168-.013.378-.011.508.11.204.187.112.555-.028.813-.076.142-.198.339-.383.43-.148.074-.367.056-.456-.084a.08.08 0 0 0-.113-.025.085.085 0 0 0-.025.116c.142.225.449.25.664.143l.014-.008.017-.01a.077.077 0 0 0 .035-.01c.32-.182.653-.384.905-.685.286-.34.432-.765.573-1.176.102-.296.207-.602.364-.87.116-.2.24-.327.376-.39.216-.099.474-.045.72.029.08.023.152.047.209.09a.489.489 0 0 1 .151.229c.104.282.064.61-.08.875l-.154.216a.984.984 0 0 1-.11.102c-.092.071-.221.128-.312.077-.143-.082-.072-.356-.035-.47.015-.044-.015-.088-.051-.105a.082.082 0 0 0-.104.054c-.107.329-.068.566.108.667.133.077.318.043.491-.09.123-.095.22-.217.297-.352.256-.367.506-.769.612-1.154.02-.074.037-.15.054-.227v-.001c.037-.17.072-.33.151-.47.107-.188.335-.332.54-.301.122.173.237.35.346.53.003.115-.01.237-.036.35-.032.137-.083.304-.206.376a.196.196 0 0 1-.193-.011c-.025-.017-.054-.045-.049-.088a.081.081 0 0 0-.073-.09.084.084 0 0 0-.09.075.254.254 0 0 0 .122.243.356.356 0 0 0 .363.015c.18-.105.246-.314.285-.485.01-.043.018-.088.024-.133.363.647.641 1.335.825 2.054a.326.326 0 0 1-.041.062c-.132.155-.35.194-.511.2-.095.002-.189-.004-.288-.01l-.005-.001a2.85 2.85 0 0 0-.336-.01 1.483 1.483 0 0 0-1.05.484c0 .002-.002.003-.003.004v.001a.508.508 0 0 0 .113.774.084.084 0 0 0 .082-.145.344.344 0 0 1-.163-.323.353.353 0 0 1 .223-.29.487.487 0 0 1 .243-.013c.395.065.712.46.698.87l-.03.016-.027.016-.011.006c-.429.24-.862.473-1.297.704l-.074-.024-.021-.007c-.158-.05-.319-.117-.488-.188l-.028-.01c-.387-.162-.788-.328-1.194-.344-.161-.016-.392-.008-.58.126-.191.138-.277.39-.199.586a.372.372 0 0 0 .283.224.319.319 0 0 0 .296-.088.084.084 0 0 0 0-.118.08.08 0 0 0-.116.003c-.035.036-.089.05-.148.039a.218.218 0 0 1-.163-.125c-.055-.138.029-.304.141-.385.145-.104.334-.11.467-.096.258.026.602.302.75.602.044.09.082.208.07.327a68.01 68.01 0 0 1-1.578.778h-.002c-.133-.022-.268-.05-.399-.078l-.009-.002a5.748 5.748 0 0 0-1.656-.146c-.066.004-.263.015-.327.174a.083.083 0 0 0 .044.108l.004.002h.003c.014.009.03.014.048.013a.535.535 0 0 1 .49.243c.09.143.105.334.043.495-.357.158-.716.312-1.075.464-.392-.015-.785-.124-1.17-.231l-.167-.047c-.616-.168-1.322-.311-1.892-.095l-.002.002-.002.001a.54.54 0 0 0-.263.136.415.415 0 0 0-.111.35.292.292 0 0 0 .158.226c.04.017.09.001.11-.04a.083.083 0 0 0-.039-.112c-.046-.022-.062-.068-.068-.103a.243.243 0 0 1 .063-.202c.084-.084.225-.122.416-.111.364.02.774.234.815.59.022.181-.059.385-.215.546-.023.023-.048.043-.072.063-.476.178-.938.344-1.39.498h-.034c-.383-.013-.81-.206-1.223-.392h-.002c-.49-.221-.998-.45-1.471-.408h-.001a1.24 1.24 0 0 0-.74.197.085.085 0 0 0-.028.115.08.08 0 0 0 .112.026c.304-.192.665-.231.943-.097.299.143.47.5.38.795-.122.4-.635.566-1.056.518-.395-.045-.755-.206-1.136-.377a8.072 8.072 0 0 0-.596-.247c-.446-.155-1.01-.217-1.456-.016a11.053 11.053 0 0 1-.738-3.035 2.33 2.33 0 0 0 1.626.396c.584-.078 1.108-.37 1.615-.653.28-.157.57-.319.866-.44.358-.15.634-.173.842-.073a.604.604 0 0 1 .302.36c.068.201.056.431-.033.617Zm32.734-29.894a52.99 52.99 0 0 0-1.034.307c.219-.23.436-.463.654-.695l.38.388Zm2.069-1.059-.07.769c-.293.08-.586.163-.877.25l-.777-.908c.13-.16.26-.321.388-.482l1.336.371Zm0-2.109-.143 1.043-.892-.166c.347-.291.693-.584 1.035-.877Zm1.236 2.438-.064.016h-.001l-.34.081.02-.204.385.107Zm2.202-.014-.005-.026a.525.525 0 0 0-.058-.14.513.513 0 0 0-.377-.482l-2.008-.552.286-3.096a.515.515 0 0 0-.92-.36c-.696.902-1.405 1.803-2.123 2.697l-1.985-.546a.514.514 0 0 0-.525.83l1.173 1.357c-.643.782-1.293 1.556-1.945 2.32a.515.515 0 0 0 .585.808 39.386 39.386 0 0 1 3.104-1.112l1.09 1.26a.514.514 0 0 0 .901-.287l.146-1.575a39.806 39.806 0 0 1 2.252-.497.514.514 0 0 0 .41-.6Zm35.863 92.097c.229-.106.459-.208.69-.307l-.254-.388-.436.695Zm2.357-.883.057-.576-1.069-.279-.31.362.621.681c.233-.065.467-.127.701-.188Zm-.039-1.202.096-.695c-.228.195-.459.39-.69.584l.594.111Zm.583 1.145.404-.097-.385-.108-.019.205Zm2.259-.145.002.007a.403.403 0 0 1-.325.483c-.603.112-1.205.242-1.802.388l-.116 1.233a.403.403 0 0 1-.284.345.42.42 0 0 1-.437-.12l-.872-.987a32.02 32.02 0 0 0-2.484.871.418.418 0 0 1-.488-.137.397.397 0 0 1 .02-.496c.523-.598 1.042-1.204 1.557-1.815l-.939-1.063a.391.391 0 0 1-.036-.477.415.415 0 0 1 .456-.172l1.588.427c.575-.699 1.142-1.404 1.699-2.111a.42.42 0 0 1 .477-.129c.17.066.276.232.259.412l-.229 2.422 1.606.432a.403.403 0 0 1 .302.377.4.4 0 0 1 .046.11Zm-34.463-41.27c-.23.1-.46.202-.69.308.146-.231.292-.463.436-.695l.254.388Zm1.724-1.151-.056.576c-.235.06-.469.123-.702.188l-.621-.68.31-.363 1.069.279Zm0-1.321-.095.695-.595-.11c.231-.195.462-.39.69-.585Zm.827 1.758-.075.018-.265.063.019-.204.385.108-.064.015Zm1.924-.043-.005-.02a.407.407 0 0 0-.046-.11.403.403 0 0 0-.302-.377l-1.606-.432.229-2.423a.399.399 0 0 0-.26-.41.418.418 0 0 0-.475.128c-.558.707-1.125 1.412-1.7 2.111l-1.588-.427a.415.415 0 0 0-.456.172.394.394 0 0 0 .036.477l.94 1.063a129.08 129.08 0 0 1-1.557 1.815.396.396 0 0 0-.02.496c.11.15.312.206.488.136a32.005 32.005 0 0 1 2.483-.87l.873.987c.107.121.279.169.436.12a.402.402 0 0 0 .284-.346l.117-1.232a32.403 32.403 0 0 1 1.801-.388.403.403 0 0 0 .328-.47ZM17.61 82.146c.229-.106.459-.209.69-.307l-.254-.388-.436.695Zm2.357-.883.056-.576-1.069-.279-.31.362.622.68c.233-.064.467-.127.701-.187Zm-.039-1.202.095-.695c-.228.195-.458.39-.69.584l.595.11Zm.921 1.063h.002l.064-.015-.386-.108-.018.204.338-.08Zm1.92-.063.005.02a.403.403 0 0 1-.327.47 32.31 32.31 0 0 0-1.802.388l-.116 1.233a.402.402 0 0 1-.284.344.417.417 0 0 1-.437-.12l-.872-.986c-.841.257-1.67.547-2.484.87a.418.418 0 0 1-.488-.136.396.396 0 0 1 .02-.496c.522-.598 1.042-1.204 1.557-1.815l-.94-1.063a.394.394 0 0 1-.036-.477.415.415 0 0 1 .457-.172l1.588.427c.575-.7 1.142-1.404 1.699-2.11a.418.418 0 0 1 .476-.13c.171.066.277.232.26.411l-.23 2.423 1.607.432c.178.048.299.206.302.377.02.033.036.07.046.11Zm12.423 38.307c-.231.099-.461.202-.69.308l.436-.695.254.387Zm1.723-1.151-.056.576c-.234.06-.468.123-.701.188l-.622-.681c.104-.12.208-.241.31-.362l1.07.279Zm0-1.321-.095.695-.594-.111c.231-.194.462-.389.69-.584Zm.892 1.743-.404.096.019-.204.385.108Zm1.857-.041a.403.403 0 0 0-.35-.494l-1.607-.432.23-2.423a.4.4 0 0 0-.26-.411.42.42 0 0 0-.476.129c-.557.707-1.124 1.412-1.7 2.111l-1.587-.427a.416.416 0 0 0-.456.172.393.393 0 0 0 .036.477l.939 1.063c-.515.611-1.035 1.217-1.557 1.815a.396.396 0 0 0-.02.496c.111.15.313.206.488.136a31.987 31.987 0 0 1 2.484-.87l.872.986c.108.122.28.17.437.12a.4.4 0 0 0 .284-.345l.116-1.232a32.768 32.768 0 0 1 1.802-.389.402.402 0 0 0 .327-.469l-.002-.013Z" fill="#F4F2FC" /><path fill-rule="evenodd" clip-rule="evenodd" d="M61.5 147.168c11.813 0 21.901 7.416 25.952 17.881a28.165 28.165 0 0 0 1.91-10.216c0-15.521-12.474-28.101-27.86-28.101-15.388.001-27.864 12.581-27.864 28.101 0 3.606.68 7.051 1.908 10.217 4.055-10.466 14.143-17.882 25.954-17.882Z" fill="#CCE7E3" /><path fill-rule="evenodd" clip-rule="evenodd" d="M61.501 150.629c3.424 0 6.724.54 9.824 1.532 4.598-9.392 7.374-21.505 7.374-34.741 0-21.028-6.993-39.234-17.197-48.165-10.206 8.93-17.2 27.136-17.2 48.164 0 13.236 2.776 25.351 7.378 34.742a32.184 32.184 0 0 1 9.821-1.532Z" fill="#F6AA6C" /><path fill-rule="evenodd" clip-rule="evenodd" d="M59.438 114.251c-5.311 0-9.632-4.374-9.633-9.754.001-5.378 4.322-9.753 9.632-9.753s9.632 4.374 9.631 9.753c0 5.38-4.32 9.755-9.63 9.754Z" fill="#F4F2FC" /><path fill-rule="evenodd" clip-rule="evenodd" d="M59.438 97.745c-3.677 0-6.669 3.029-6.669 6.752 0 3.726 2.991 6.753 6.669 6.753 3.675 0 6.668-3.027 6.667-6.753 0-3.723-2.992-6.752-6.668-6.752Z" fill="#FFFFFE" /><path fill-rule="evenodd" clip-rule="evenodd" d="M70.789 127.14c-2.656 0-4.816-2.188-4.817-4.878 0-2.688 2.16-4.876 4.816-4.876 2.656 0 4.816 2.187 4.816 4.877s-2.16 4.877-4.815 4.877Z" fill="#F4F2FC" /><path fill-rule="evenodd" clip-rule="evenodd" d="M70.788 118.887c-1.838-.001-3.334 1.514-3.334 3.376 0 1.863 1.495 3.376 3.334 3.376 1.838 0 3.334-1.514 3.334-3.377 0-1.861-1.496-3.376-3.334-3.375Z" fill="#FFFFFE" /><path fill-rule="evenodd" clip-rule="evenodd" d="M64.162 153.839c2.403 0 4.35 2.146 4.35 4.793 2.403 0 4.35 2.145 4.35 4.792 0 .884-.218 1.712-.597 2.423 2.54.79 4.404 3.361 4.404 6.413 0 2.654-1.409 4.945-3.447 6.017.163.481.252 1.002.252 1.546 0 2.44-1.795 4.417-4.01 4.417l-.075-.002c-.94 1.538-2.534 2.549-4.343 2.549-1.438 0-2.74-.639-3.686-1.673-.946 1.034-2.248 1.673-3.686 1.673-1.809 0-3.403-1.011-4.343-2.549l-.075.002c-2.215 0-4.01-1.977-4.01-4.417 0-.544.09-1.065.253-1.546-2.039-1.072-3.448-3.363-3.448-6.017 0-3.052 1.863-5.623 4.404-6.413a5.143 5.143 0 0 1-.597-2.423c0-2.647 1.947-4.792 4.35-4.792 0-2.647 1.947-4.793 4.35-4.793 1.068 0 2.045.424 2.802 1.127.757-.703 1.735-1.127 2.802-1.127Z" fill="#EA4E78" /><path fill-rule="evenodd" clip-rule="evenodd" d="M56.518 200H21.686c-4.119 0-7.456-3.331-7.456-7.44s3.337-7.439 7.456-7.439c0-4.109 3.337-7.44 7.455-7.44 1.376 0 2.664.373 3.77 1.022a10.367 10.367 0 0 1 9.977-7.532 10.37 10.37 0 0 1 9.361 5.896 6.87 6.87 0 0 1 2.405-.433c3.796 0 6.873 3.071 6.873 6.859 0 .043-.002.085-.003.128a8.935 8.935 0 0 1 3.964 7.428c0 4.944-4.016 8.951-8.97 8.951Z" fill="#EE7394" /><path fill-rule="evenodd" clip-rule="evenodd" d="M65.858 200h34.832c4.119 0 7.456-3.331 7.456-7.44s-3.337-7.439-7.456-7.439c0-4.109-3.337-7.44-7.455-7.44a7.426 7.426 0 0 0-3.77 1.022 10.367 10.367 0 0 0-9.977-7.532 10.37 10.37 0 0 0-9.362 5.896 6.871 6.871 0 0 0-2.404-.433c-3.796 0-6.873 3.071-6.873 6.859 0 .043.003.085.003.128a8.935 8.935 0 0 0-3.964 7.428c0 4.944 4.016 8.951 8.97 8.951Z" fill="#E88BA4" /></symbol><symbol viewBox="0 0 25 12" id="mt-trackingDetected"><circle cx="12.5" cy="6.5" r="3.5" fill="#66CB87" fill-rule="evenodd" /></symbol><symbol fill="none" viewBox="0 0 20 20" id="mt-trash"><path d="M5 15.833c0 .917.75 1.667 1.667 1.667h6.666c.917 0 1.667-.75 1.667-1.667v-10H5v10ZM6.667 7.5h6.666v8.333H6.666V7.5Zm6.25-4.167-.834-.833H7.916l-.833.833H4.166V5h11.667V3.333h-2.917Z" fill="#333" /></symbol><symbol fill="none" viewBox="0 0 24 24" id="mt-unifiedCampaign"><path d="M7.333 21v-5.23H5c-.556 0-1.028-.191-1.417-.573A1.873 1.873 0 0 1 3 13.807V9.886c0-.545.194-1.008.583-1.39A1.948 1.948 0 0 1 5 7.923h6L17.667 4v15.692L11 15.77H9.333V21h-2ZM19 16.227V7.465c.6.523 1.083 1.161 1.45 1.913s.55 1.575.55 2.468c0 .894-.183 1.716-.55 2.468A5.983 5.983 0 0 1 19 16.227ZM5 9.885v3.923h6.533l4.134 2.419V7.465l-4.134 2.42H5Z" fill="#66CB87" /></symbol><symbol fill="none" viewBox="0 0 24 24" id="mt-upgrade"><path d="M20 4H4c-1.11 0-1.99.89-1.99 2L2 18c0 1.11.89 2 2 2h16c1.11 0 2-.89 2-2V6c0-1.11-.89-2-2-2Zm0 14H4v-6h16v6Zm0-10H4V6h16v2Z" fill="currentColor" /></symbol></defs></svg>