<svg width="20" height="20" viewBox="0 0 20 20" fill="none" xmlns="http://www.w3.org/2000/svg">
<path fill-rule="evenodd" clip-rule="evenodd" d="M1.41114 5.36794L8.34368 1.0285C8.75937 0.768293 9.29326 0.768293 9.70895 1.0285L16.6415 5.36794C17.0017 5.59339 17.2193 5.98119 17.2193 6.39748V12.4655C17.2193 12.8037 16.9372 13.0778 16.5891 13.0778H1.46354C1.11548 13.0778 0.833313 12.8037 0.833313 12.4655V6.39748C0.833313 5.98119 1.05096 5.59339 1.41114 5.36794Z" fill="white"/>
<path fill-rule="evenodd" clip-rule="evenodd" d="M3.03911 2.36389H15.0135C15.3616 2.36389 15.6437 2.63799 15.6437 2.97612V7.16333C15.6437 7.60274 15.4014 8.00845 15.0086 8.22645L9.65166 11.2001C9.26415 11.4152 8.78844 11.4152 8.40093 11.2001L3.04397 8.22645C2.65124 8.00845 2.40887 7.60274 2.40887 7.16333V2.97612C2.40887 2.63799 2.69104 2.36389 3.03911 2.36389Z" fill="black"/>
<path fill-rule="evenodd" clip-rule="evenodd" d="M15.0135 2.08344C15.4166 2.08344 15.8333 2.44073 15.8333 2.91677V7.10399C15.8333 7.54339 15.4013 8.00847 15.0086 8.22647L9.65165 11.2001C9.26414 11.4152 8.78842 11.4152 8.40092 11.2001L3.04396 8.22647C2.65123 8.00847 2.08331 7.60276 2.08331 7.16336V2.97614C2.08331 2.5001 2.49998 2.08344 3.03909 2.08344H15.0135ZM15.0135 2.67003H3.03911C2.8775 2.67003 2.74431 2.7882 2.72611 2.94044L2.72399 2.97614V7.16336C2.72399 7.47231 2.88376 7.75906 3.14642 7.92842L3.20031 7.9607L8.55727 10.9344C8.82853 11.0849 9.15741 11.095 9.43635 10.9645L9.49532 10.9344L14.8523 7.9607C15.1284 7.80741 15.3054 7.5304 15.3265 7.22483L15.3286 7.16336V2.97614C15.3286 2.81916 15.207 2.68977 15.0502 2.67209L15.0135 2.67003Z" fill="white"/>
<path fill-rule="evenodd" clip-rule="evenodd" d="M15.3286 6.9556L15.3286 7.97333C15.2383 8.07277 15.1307 8.1587 15.0086 8.22648L9.65165 11.2001C9.26414 11.4152 8.78843 11.4152 8.40092 11.2001L3.04396 8.22648C2.9216 8.15855 2.81384 8.07241 2.72345 7.9727L2.72398 6.9556H15.3286Z" fill="black"/>
<path fill-rule="evenodd" clip-rule="evenodd" d="M8.67389 7.1555L9.40195 6.4318L9.84457 6.87079L11.9967 4.77114C12.2824 4.46466 12.5542 4.43019 12.812 4.66771C13.0698 4.90523 13.057 5.17233 12.7734 5.46901L10.2624 7.93691C10.1616 8.04615 10.0224 8.10077 9.84457 8.10077C9.66677 8.10077 9.50931 8.01524 9.37219 7.84418L8.67389 7.1555Z" fill="white"/>
<path fill-rule="evenodd" clip-rule="evenodd" d="M5.24489 6.72608C5.01573 6.4842 5.00945 6.24297 5.22606 6.00238C5.44267 5.76179 5.69163 5.76179 5.97294 6.00238L6.9509 6.95304L9.10306 4.85338C9.38877 4.54691 9.66052 4.51243 9.91834 4.74995C10.1761 4.98747 10.1633 5.25458 9.87978 5.55126L7.36869 8.01916C7.26797 8.1284 7.12871 8.18302 6.9509 8.18302C6.7731 8.18302 6.61564 8.09748 6.47853 7.92642L5.24489 6.72608Z" fill="white"/>
<circle cx="13.3333" cy="13.3333" r="5.83333" fill="white"/>
<ellipse cx="13.3334" cy="13.3333" rx="4.16667" ry="4.16667" fill="black"/>
<path d="M13.75 10.8334H12.5V14.1667L15 15.8334L15.625 14.8084L13.75 13.5417V10.8334Z" fill="white"/>
</svg>
