<?xml version="1.0" encoding="UTF-8" standalone="no"?><!DOCTYPE svg PUBLIC "-//W3C//DTD SVG 1.1//EN" "http://www.w3.org/Graphics/SVG/1.1/DTD/svg11.dtd">
<svg width="100%" height="100%" viewBox="0 0 147 18" version="1.1" 
  xmlns="http://www.w3.org/2000/svg" 
  xmlns:xlink="http://www.w3.org/1999/xlink" xml:space="preserve" 
  xmlns:serif="http://www.serif.com/" style="fill-rule:evenodd;clip-rule:evenodd;stroke-linejoin:round;stroke-miterlimit:2;">
  <path d="M0,6.982c0,-3.849 3.284,-6.982 7.189,-6.982c2.161,0 3.699,0.834 4.857,1.924l-1.366,1.346c-0.829,-0.767 -1.952,-1.363 -3.491,-1.363c-2.851,0 -5.081,2.265 -5.081,5.075c0,2.81 2.23,5.075 5.081,5.075c1.849,0 2.904,-0.732 3.578,-1.397c0.553,-0.545 0.916,-1.328 1.054,-2.401l-4.632,0l0,-1.907l6.516,0c0.069,0.34 0.103,0.749 0.103,1.192c0,1.43 -0.397,3.202 -1.676,4.462c-1.244,1.277 -2.834,1.958 -4.943,1.958c-3.905,0 -7.189,-3.133 -7.189,-6.982Z" style="fill:#fff;"/>
  <path d="M19.074,12.193c-1.383,0 -2.575,-1.124 -2.575,-2.725c0,-1.618 1.192,-2.724 2.575,-2.724c1.382,0 2.575,1.106 2.575,2.724c0,1.601 -1.193,2.725 -2.575,2.725Zm0,-7.22c-2.523,0 -4.58,1.89 -4.58,4.495c0,2.589 2.057,4.496 4.58,4.496c2.523,0 4.58,-1.907 4.58,-4.496c0,-2.605 -2.057,-4.495 -4.58,-4.495Z" style="fill:#fff;"/>
  <path d="M29.065,12.193c-1.383,0 -2.576,-1.124 -2.576,-2.725c0,-1.618 1.193,-2.724 2.575,-2.724c1.383,0 2.575,1.106 2.575,2.724c0,1.601 -1.192,2.725 -2.575,2.725Zm0,-7.22c-2.523,0 -4.579,1.89 -4.579,4.495c0,2.589 2.056,4.496 4.579,4.496c2.524,0 4.58,-1.907 4.58,-4.496c0,-2.605 -2.056,-4.495 -4.579,-4.495Z" style="fill:#fff;"/>
  <path d="M39.029,12.193c-1.383,0 -2.541,-1.141 -2.541,-2.708c0,-1.583 1.158,-2.741 2.541,-2.741c1.365,0 2.437,1.158 2.437,2.741c0,1.567 -1.072,2.708 -2.437,2.708Zm2.298,-6.948l0,0.732l-0.069,0c-0.449,-0.528 -1.313,-1.004 -2.402,-1.004c-2.281,0 -4.372,1.975 -4.372,4.512c0,2.521 2.091,4.479 4.372,4.479c1.089,0 1.953,-0.477 2.402,-1.022l0.069,0l0,0.648c0,1.719 -0.933,2.639 -2.436,2.639c-1.227,0 -1.988,-0.869 -2.299,-1.601l-1.745,0.715c0.501,1.192 1.832,2.657 4.044,2.657c2.35,0 4.337,-1.362 4.337,-4.683l0,-8.072l-1.901,0Z" style="fill:#fff;"/>
  <rect x="44.611" y="0.477" width="2.005" height="13.215" style="fill:#fff;"/>
  <path d="M51.956,6.71c0.795,0 1.469,0.391 1.694,0.953l-4.079,1.669c-0.052,-1.737 1.365,-2.622 2.385,-2.622Zm0.155,5.483c-1.019,0 -1.745,-0.46 -2.212,-1.362l6.101,-2.487l-0.207,-0.511c-0.381,-1.004 -1.538,-2.861 -3.906,-2.861c-2.351,0 -4.303,1.823 -4.303,4.496c0,2.521 1.935,4.496 4.527,4.496c2.092,0 3.301,-1.26 3.802,-1.992l-1.555,-1.022c-0.518,0.749 -1.227,1.243 -2.247,1.243Z" style="fill:#fff;"/>
  <path d="M72.524,1.144l0,1.584l-5.868,0l0,4.086l5.292,0l0,1.548l-5.292,0l0,4.086l5.868,0l0,1.584l-7.524,0l0,-12.888l7.524,0Zm2.886,10.188c0,0.432 0.18,0.792 0.54,1.08c0.372,0.288 0.804,0.432 1.296,0.432c0.696,0 1.314,-0.258 1.854,-0.774c0.552,-0.516 0.828,-1.122 0.828,-1.818c-0.516,-0.408 -1.236,-0.612 -2.16,-0.612c-0.672,0 -1.236,0.162 -1.692,0.486c-0.444,0.324 -0.666,0.726 -0.666,1.206Zm2.142,-6.408c1.224,0 2.19,0.33 2.898,0.99c0.708,0.648 1.062,1.542 1.062,2.682l0,5.436l-1.584,0l0,-1.224l-0.072,0c-0.684,1.008 -1.596,1.512 -2.736,1.512c-0.972,0 -1.788,-0.288 -2.448,-0.864c-0.648,-0.576 -0.972,-1.296 -0.972,-2.16c0,-0.912 0.342,-1.638 1.026,-2.178c0.696,-0.54 1.62,-0.81 2.772,-0.81c0.984,0 1.794,0.18 2.43,0.54l0,-0.378c0,-0.576 -0.228,-1.062 -0.684,-1.458c-0.456,-0.408 -0.99,-0.612 -1.602,-0.612c-0.924,0 -1.656,0.39 -2.196,1.17l-1.458,-0.918c0.804,-1.152 1.992,-1.728 3.564,-1.728Zm16.16,9.252c-0.72,0 -1.32,-0.222 -1.8,-0.666c-0.468,-0.444 -0.708,-1.062 -0.72,-1.854l0,-4.932l-1.548,0l0,-1.512l1.548,0l0,-2.7l1.656,0l0,2.7l2.16,0l0,1.512l-2.16,0l0,4.392c0,0.588 0.114,0.99 0.342,1.206c0.228,0.204 0.486,0.306 0.774,0.306c0.132,0 0.258,-0.012 0.378,-0.036c0.132,-0.036 0.252,-0.078 0.36,-0.126l0.522,1.476c-0.432,0.156 -0.936,0.234 -1.512,0.234Zm-10.332,-8.964l1.584,0l0,1.44l0.072,0c0.492,-1.128 1.506,-1.692 3.042,-1.692l0.342,0.036l0,1.728l-0.738,-0.072c-0.768,0 -1.404,0.24 -1.908,0.72c-0.492,0.468 -0.738,1.068 -0.738,1.8l0,4.86l-1.656,0l0,-8.82Zm13.307,-4.068l1.656,0l0,4.068l-0.072,1.224l0.072,0c0.252,-0.432 0.636,-0.792 1.152,-1.08c0.528,-0.288 1.074,-0.432 1.638,-0.432c1.08,0 1.908,0.312 2.484,0.936c0.588,0.612 0.882,1.488 0.882,2.628l0,5.544l-1.656,0l0,-5.22c0,-1.584 -0.702,-2.376 -2.106,-2.376c-0.672,0 -1.242,0.282 -1.71,0.846c-0.456,0.552 -0.684,1.2 -0.684,1.944l0,4.806l-1.656,0l0,-12.888Zm18.462,12.888l-1.728,0l-4.536,-12.888l1.836,0l3.528,10.458l0.072,0l3.672,-10.458l1.836,0l-4.68,12.888Zm7.691,-11.862c0,0.324 -0.114,0.6 -0.342,0.828c-0.228,0.228 -0.504,0.342 -0.828,0.342c-0.324,0 -0.6,-0.114 -0.828,-0.342c-0.228,-0.228 -0.342,-0.504 -0.342,-0.828c0,-0.324 0.114,-0.6 0.342,-0.828c0.228,-0.228 0.504,-0.342 0.828,-0.342c0.324,0 0.6,0.114 0.828,0.342c0.228,0.228 0.342,0.504 0.342,0.828Zm-0.342,3.042l0,8.82l-1.656,0l0,-8.82l1.656,0Zm6.027,9.108c-1.296,0 -2.364,-0.444 -3.204,-1.332c-0.84,-0.888 -1.26,-2.01 -1.26,-3.366c0,-1.344 0.408,-2.46 1.224,-3.348c0.816,-0.9 1.86,-1.35 3.132,-1.35c1.308,0 2.346,0.426 3.114,1.278c0.78,0.84 1.17,2.022 1.17,3.546l-0.018,0.18l-6.93,0c0.024,0.864 0.312,1.56 0.864,2.088c0.552,0.528 1.212,0.792 1.98,0.792c1.056,0 1.884,-0.528 2.484,-1.584l1.476,0.72c-0.396,0.744 -0.948,1.326 -1.656,1.746c-0.696,0.42 -1.488,0.63 -2.376,0.63Zm-2.646,-5.76l5.058,0c-0.048,-0.612 -0.3,-1.116 -0.756,-1.512c-0.444,-0.408 -1.044,-0.612 -1.8,-0.612c-0.624,0 -1.164,0.192 -1.62,0.576c-0.444,0.384 -0.738,0.9 -0.882,1.548Zm20.653,-3.348l-2.844,8.82l-1.692,0l-2.196,-6.768l-2.178,6.768l-1.674,0l-2.844,-8.82l1.728,0l1.962,6.66l0.018,0l2.178,-6.66l1.71,0l2.178,6.66l0.018,0l1.944,-6.66l1.692,0Z" style="fill:#fff;fill-rule:nonzero;"/>
</svg>
